<svg width="561" height="162" viewBox="0 0 561 162" fill="none" xmlns="http://www.w3.org/2000/svg">
<path d="M126.276 106.73C127.549 104.479 127.582 102.175 126.376 99.8151C126.494 99.9242 126.624 99.9072 126.764 99.764L129.018 99.273C130.594 99.4775 132.178 99.3889 133.769 99.007C136.078 98.4444 137.599 98.8127 139.664 99.3446C140.031 99.4366 140.086 99.8969 139.753 100.061L126.276 106.73Z" fill="#210F2D"/>
<path d="M126.376 99.8151C127.582 102.175 127.549 104.479 126.276 106.73L119.415 110.065L108.769 113.583C108.658 113.624 108.591 113.726 108.613 113.829C108.635 113.941 108.746 114.013 108.857 114.003C111.396 113.832 113.387 114.292 114.83 115.384C112.343 116.454 110.341 116.894 108.824 116.703C102.2 117.208 95.8463 117.02 89.7626 116.141L96.7455 113.87C96.9564 113.798 96.9676 113.532 96.7677 113.44L95.4022 112.806C96.4236 112.322 97.0934 111.473 97.4116 110.259C104.887 108.186 109.953 106.607 112.61 105.523C117.295 103.614 121.883 101.711 126.376 99.8151Z" fill="#3D1745"/>
<path d="M118.517 114.268L114.83 115.384C113.387 114.292 111.396 113.832 108.857 114.003C108.746 114.013 108.635 113.941 108.613 113.829C108.591 113.726 108.658 113.624 108.769 113.583L119.415 110.065C123.523 109.894 127.435 108.898 131.15 107.078C131.317 106.996 131.528 107.047 131.628 107.2L131.761 107.425C131.805 107.497 131.783 107.589 131.717 107.64C127.557 110.313 123.157 112.523 118.517 114.268Z" fill="#210F2D"/>
<path d="M118.517 114.268C120.256 115.325 122.065 115.994 123.945 116.273C124.489 116.355 124.589 117.041 124.089 117.255C110.667 122.932 96.8457 124.804 82.2914 121.04C82.0472 120.979 81.9584 120.692 82.136 120.518L84.3674 118.288C87.6461 118.561 90.9322 118.96 94.2257 119.485C98.5183 120.16 103.384 119.233 108.824 116.703C110.341 116.894 112.343 116.454 114.83 115.384L118.517 114.268Z" fill="#050B29"/>
<path d="M89.7626 116.141C95.8463 117.02 102.2 117.208 108.824 116.703C103.384 119.233 98.5183 120.16 94.2257 119.485C90.9322 118.96 87.6461 118.561 84.3674 118.288L79.5051 117.562C79.3164 117.531 79.1831 117.378 79.1831 117.204C79.1942 117.03 79.3386 116.887 79.5273 116.877L89.7626 116.141Z" fill="#210F2D"/>
<path d="M100.486 53.1711C92.5377 54.6918 85.1958 57.532 78.4608 61.6918C76.8918 62.6533 75.3042 63.8432 73.6982 65.2616C71.4261 67.2665 70.0235 68.6406 69.4907 69.3839C67.1075 72.739 63.6549 78.8422 59.1328 87.6936C58.8146 88.3005 58.167 88.5562 57.1901 88.4608C57.2345 88.1812 57.0605 87.9664 56.6683 87.8164C56.5017 87.755 56.313 87.7652 56.1576 87.8471L48.5863 91.8772C48.2643 92.0511 47.8758 91.8261 47.8869 91.4885L47.9202 90.9873L49.2302 89.8519C52.1388 87.2742 55.1807 84.8738 58.3557 82.6508C59.2661 82.0166 60.1764 80.7755 61.0867 78.9274C61.0941 78.9138 61.1015 78.9002 61.1089 78.8865L65.8271 71.6036C67.0335 70.8125 68.0697 69.8851 68.9356 68.8213C70.2974 67.1438 71.204 66.1141 71.6555 65.7322C73.2023 64.4365 74.3791 63.2056 75.1858 62.0396C75.4078 61.7327 75.6965 61.4565 76.0295 61.2417C81.869 57.5082 85.7324 55.9227 93.1483 53.6416C93.3703 53.5734 93.7255 53.3348 94.214 52.9256C94.5471 52.646 94.9726 52.5233 95.4907 52.5574C97.2004 52.6597 98.8656 52.8642 100.486 53.1711Z" fill="#C42E37"/>
<path d="M147.391 71.4195C146.325 72.2241 145.045 72.5446 143.55 72.381C143.394 72.3605 143.239 72.4526 143.195 72.5856L143.106 72.8617C143.05 73.0663 143.184 73.2709 143.406 73.3118C145.359 73.6664 146.821 74.4915 147.791 75.7872C148.013 76.0736 148.068 76.4521 147.935 76.7896L146.758 79.8174L143.872 82.0984C142.799 82.0848 141.722 82.3098 140.641 82.7735C140.197 82.9577 139.731 82.5792 139.864 82.1496L140.908 78.8968C141.052 78.4467 140.863 77.966 140.453 77.7L133.125 72.9436C132.748 72.6981 132.426 72.3708 132.182 72.0025C129.725 68.2451 126.864 65.0094 123.6 62.2953C121.691 60.7098 118.405 58.7254 116.251 56.2807C117.383 56.6353 118.445 57.1127 119.437 57.7128C124.529 60.7882 129.292 64.249 133.725 68.0951C137.311 71.2149 141.241 71.7263 147.391 71.4195Z" fill="#C42E37"/>
<path d="M150.943 76.851C149.966 78.2898 148.572 79.2787 146.758 79.8174L147.935 76.7896C148.068 76.4521 148.013 76.0736 147.791 75.7872C146.821 74.4915 145.359 73.6664 143.406 73.3118C143.184 73.2709 143.05 73.0663 143.106 72.8617L143.195 72.5856C143.239 72.4526 143.394 72.3605 143.55 72.381C145.045 72.5446 146.325 72.2241 147.391 71.4195C149.412 70.9421 150.595 72.7526 150.943 76.851Z" fill="#A3343B"/>
<path d="M57.1901 88.4608L54.9918 90.5168L48.7416 96.3473C47.4168 98.0725 46.9098 100.125 47.2207 102.505L41.8808 100.981C41.6439 101.104 41.4663 101.063 41.3479 100.858C41.5181 100.817 41.6661 100.746 41.792 100.643C41.8956 100.562 41.9659 100.425 42.0029 100.234C42.7134 96.4427 44.6859 93.3604 47.9202 90.9873L47.8869 91.4885C47.8758 91.8261 48.2643 92.0511 48.5863 91.8772L56.1576 87.8471C56.313 87.7652 56.5017 87.755 56.6683 87.8164C57.0605 87.9664 57.2345 88.1812 57.1901 88.4608Z" fill="#6B1D43"/>
<path d="M57.1363 80.2063L49.676 86.0675L46.9672 87.6837L42.2379 88.594C41.7827 88.6759 41.5274 88.1337 41.9159 87.8985L48.4215 83.9297C49.0062 84.557 49.4761 84.673 49.8314 84.2774C52.3403 81.4474 54.7753 80.0904 57.1363 80.2063Z" fill="#210F2D"/>
<path d="M90.5113 46.4201C99.4962 45.1517 107.991 46.1463 115.955 49.3991L101.947 48.303C96.1223 48.0848 90.0622 48.7641 83.8008 50.2984C81.9181 50.4433 80.0929 51.0348 78.3207 52.069C78.0284 52.2515 78.0069 52.6408 78.2927 52.8278C78.6702 53.0733 78.791 53.387 78.6282 53.7552C78.5513 53.9369 78.4051 54.0946 78.2088 54.1768C75.4112 55.3429 73.1505 57.0184 71.4704 59.2074L65.459 64.3785C65.1149 64.6751 65.3285 65.1933 65.7945 65.1936H67.3323C67.9207 65.1936 68.072 65.9267 67.5281 66.121C65.9327 66.7009 65.004 67.7113 64.76 69.1281C61.4038 72.2836 58.8669 75.9819 57.1363 80.2063C54.7753 80.0904 52.3403 81.4474 49.8314 84.2774C49.4761 84.673 49.0062 84.557 48.4215 83.9297L55.9246 76.1541C56.1785 75.8894 56.3149 75.5446 56.3161 75.1986C56.3605 69.8591 60.4953 65.7539 64.5363 61.9897C64.9017 61.6527 65.2322 61.2738 65.487 60.8655C66.871 58.6356 68.8784 56.6082 71.4984 54.767C71.7166 54.6155 71.7745 54.316 71.6382 54.0925L71.4984 53.8395C71.4215 53.7181 71.2671 53.6869 71.1349 53.7552L64.1449 57.465C64.0685 57.5001 63.964 57.4778 63.9212 57.4087L63.7814 57.1839L63.8094 57.0715C67.3728 54.2598 70.9282 52.1965 74.4622 50.8886C77.7474 49.6759 82.1177 48.5902 87.5754 47.6566C87.7517 47.6261 87.9243 47.597 88.0787 47.5161L89.4767 46.7573C89.7932 46.5887 90.1416 46.4708 90.5113 46.4201Z" fill="#3D1745"/>
<path d="M122.693 52.3781C127.307 54.7287 131.39 57.7806 134.94 61.54V61.5962L134.884 61.6244L127.475 56.8186C127.333 56.7283 127.139 56.7397 127.027 56.8467C126.919 56.9667 126.896 57.146 126.999 57.2682C127.939 58.3116 128.69 59.5077 129.208 60.8374L123.896 57.3806C123.676 57.2389 123.493 57.0228 123.392 56.7905C122.808 55.4415 122.576 53.9653 122.693 52.3781Z" fill="#3D1745"/>
<path d="M105.627 56.2398C111.178 58.3811 115.148 60.2223 117.539 61.7634C121.795 64.4979 125.04 68.4463 127.275 73.6085C127.986 75.7429 128.607 77.6557 129.14 79.3469C129.851 81.6041 129.07 83.1213 126.798 83.8987C126.146 72.2446 120.137 64.7366 108.769 61.3747C102.951 59.6699 97.3931 59.7279 92.0939 61.5486C78.5796 66.1925 72.1813 75.2417 72.8992 88.6961C73.2249 94.8334 76.6405 98.4101 83.146 99.4262L80.737 100.234C80.4039 100.357 80.0265 100.357 79.6934 100.234C76.3629 99.0375 72.5662 98.1783 71.8224 94.9357C70.5272 89.2144 70.6715 83.6192 72.2553 78.1501C72.5069 77.2704 73.4654 75.4872 75.1306 72.8004C76.0336 71.3479 77.3658 69.8067 79.1272 68.1769C82.1617 65.3606 85.0333 62.2442 87.7421 58.8277C92.7822 56.516 98.7438 55.6534 105.627 56.2398Z" fill="#FEC53B"/>
<path d="M87.7421 58.8277C85.0333 62.2442 82.1617 65.3606 79.1272 68.1769C77.3658 69.8067 76.0336 71.3479 75.1306 72.8004C73.4654 75.4872 72.5069 77.2704 72.2553 78.1501C70.6715 83.6192 70.5272 89.2144 71.8224 94.9357C72.5662 98.1783 76.3629 99.0375 79.6934 100.234C80.0265 100.357 80.4039 100.357 80.737 100.234L83.146 99.4262C98.5625 99.0239 112.302 94.6392 124.366 86.272L126.798 83.8987C129.07 83.1213 129.851 81.6041 129.14 79.3469C128.607 77.6557 127.986 75.7429 127.275 73.6085C129.858 75.2383 131.826 77.3899 133.18 80.063C133.358 80.4108 133.325 80.82 133.103 81.1473L126.409 91.1L117.627 95.7235C107.946 98.6898 101.67 100.456 98.7987 101.022C89.3549 102.884 80.5994 101.997 72.5323 98.3625C67.9214 96.2826 65.7714 92.4502 66.0822 86.8652C67.4884 81.0416 68.5061 77.4069 69.1352 75.9612C72.5841 67.9827 78.7868 62.2715 87.7421 58.8277Z" fill="#FFAE0E"/>
<path d="M115.94 49.4069L122.69 52.3733C122.571 53.9622 122.805 55.4317 123.389 56.7819C123.489 57.0172 123.667 57.232 123.889 57.3752L129.195 60.8326C132.037 64.4604 135.298 66.4516 138.976 66.8062C145.963 67.4814 152.683 66.7176 159.137 64.515C159.359 64.4434 159.603 64.5354 159.714 64.7298C159.814 64.9241 159.725 65.1594 159.525 65.2719L155.384 67.4711C155.14 67.5939 155.051 67.87 155.162 68.1053C155.273 68.3406 155.551 68.4531 155.817 68.3815C157.675 67.8428 159.373 66.8267 160.913 65.3333C161.057 65.1901 161.279 65.1594 161.468 65.2515C161.727 65.3878 161.805 65.6402 161.701 66.0084C158.763 69.9567 155.176 73.5709 150.943 76.851C150.595 72.7526 149.412 70.9421 147.391 71.4195C141.241 71.7263 137.311 71.2149 133.725 68.0951C129.292 64.249 124.529 60.7882 119.437 57.7128C118.445 57.1127 117.383 56.6353 116.251 56.2807C115.896 55.9466 115.718 55.8682 115.718 56.0455C115.888 55.3022 115.892 54.685 115.729 54.194C115.64 53.9178 115.44 53.6724 115.185 53.4985C111.403 51.0367 106.988 49.308 101.941 48.3124L115.94 49.4069Z" fill="#6B1D43"/>
<path d="M101.941 48.3124C106.988 49.308 111.403 51.0367 115.185 53.4985C115.44 53.6724 115.64 53.9178 115.729 54.194C115.892 54.685 115.888 55.3022 115.718 56.0455C110.855 54.2043 105.778 53.2461 100.486 53.1711C98.8656 52.8642 97.2004 52.6597 95.4907 52.5574C94.9726 52.5233 94.5471 52.646 94.214 52.9256C93.7255 53.3348 93.3703 53.5734 93.1483 53.6416C85.7324 55.9227 81.869 57.5082 76.0295 61.2417C75.6965 61.4565 75.4078 61.7327 75.1858 62.0396C74.3791 63.2056 73.2023 64.4365 71.6555 65.7322C71.204 66.1141 70.2974 67.1438 68.9356 68.8213C68.0697 69.8851 67.0335 70.8125 65.8271 71.6036C66.0344 70.8603 65.6831 70.0351 64.7728 69.1281C65.017 67.7097 65.9385 66.7107 67.5371 66.131C68.0811 65.9367 67.9256 65.19 67.3373 65.19H65.7941C65.3279 65.19 65.1058 64.6683 65.45 64.3717L71.4782 59.1958L83.035 53.1506C83.3458 52.9869 83.5456 52.7005 83.579 52.3732L83.8121 50.2865C90.0734 48.7521 96.1162 48.0942 101.941 48.3124Z" fill="#A3343B"/>
<path d="M83.8121 50.2865L83.579 52.3732C83.5456 52.7005 83.3458 52.9869 83.035 53.1506L71.4782 59.1958C73.1582 57.0069 75.3975 55.3295 78.1952 54.1634C78.395 54.0816 78.5505 53.9393 78.6282 53.7552C78.791 53.387 78.6836 53.0792 78.3062 52.8337C78.0064 52.6496 78.0175 52.2404 78.3173 52.0563C80.0935 51.0198 81.9248 50.4297 83.8121 50.2865Z" fill="#6B1D43"/>
<path d="M161.701 66.0084L163.411 66.4276C163.766 66.5095 163.955 66.8777 163.788 67.1846L161.856 70.7238C161.534 71.3273 162.056 72.0331 162.789 71.9615C162.93 71.9478 163.092 71.9205 163.277 71.8796C160.835 74.1641 158.444 75.9746 156.106 77.3112C154.019 78.5045 152.501 79.4626 151.554 80.1855L134.802 89.5142C134.38 89.7495 133.902 89.279 134.202 88.9107C134.698 88.3038 135.405 87.7549 136.323 87.2639C139.068 85.7977 141.585 84.076 143.872 82.0984L146.758 79.8174C148.572 79.2787 149.966 78.2898 150.943 76.851C155.176 73.5709 158.763 69.9567 161.701 66.0084Z" fill="#3D1745"/>
<path d="M65.8271 71.6036L61.1089 78.8865L61.0867 78.9274C60.1764 80.7755 59.2661 82.0166 58.3557 82.6508C55.1807 84.8738 52.1388 87.2742 49.2302 89.8519L49.676 86.0675L57.1363 80.2063C58.8681 75.9784 61.4127 72.2854 64.7728 69.1281C65.6831 70.0351 66.0344 70.8603 65.8271 71.6036Z" fill="#6B1D43"/>
<path d="M49.676 86.0675L49.2302 89.8519L47.9202 90.9873C44.6859 93.3604 42.7134 96.4427 42.0029 100.234C41.9659 100.425 41.8956 100.562 41.792 100.643C41.6661 100.746 41.5181 100.817 41.3479 100.858L37.9402 99.7636C39.45 96.9746 41.4076 94.5435 43.813 92.4704C43.9684 92.3375 43.9906 92.1022 43.8685 91.9385C43.7353 91.7851 43.491 91.734 43.3023 91.8362L38.6396 94.3116C38.4953 94.3935 38.3066 94.3423 38.2178 94.2093L38.0401 93.9229C37.9069 93.6979 37.9735 93.4217 38.2067 93.2683L46.9672 87.6837L49.676 86.0675Z" fill="#3D1745"/>
<path d="M108.769 61.3747L100.42 63.1749C100.065 63.2568 100.087 63.7171 100.442 63.7785C111.977 65.6094 119.104 74.0483 119.104 84.8397C119.104 85.1773 119.326 85.4739 119.659 85.5967C120.658 85.9786 121.761 85.9615 122.967 85.5455C123.478 85.3682 123.944 85.6105 124.366 86.272C112.302 94.6392 98.5625 99.0239 83.146 99.4262C76.6405 98.4101 73.2249 94.8334 72.8992 88.6961C72.1813 75.2417 78.5796 66.1925 92.0939 61.5486C97.3931 59.7279 102.951 59.6699 108.769 61.3747Z" fill="#030914"/>
<path d="M126.798 83.8987L124.366 86.272C123.944 85.6105 123.478 85.3682 122.967 85.5455C121.761 85.9615 120.658 85.9786 119.659 85.5967C119.326 85.4739 119.104 85.1773 119.104 84.8397C119.104 74.0483 111.977 65.6094 100.442 63.7785C100.087 63.7171 100.065 63.2568 100.42 63.1749L108.769 61.3747C120.137 64.7366 126.146 72.2446 126.798 83.8987Z" fill="#210F2D"/>
<path d="M126.409 91.1L133.103 81.1473C133.325 80.82 133.358 80.4108 133.18 80.063C131.826 77.3899 129.858 75.2383 127.275 73.6085C125.04 68.4463 121.795 64.4979 117.539 61.7634C115.148 60.2223 111.178 58.3811 105.627 56.2398C113.287 56.383 119.824 59.6901 125.242 66.1616C130.341 72.2512 132.991 75.4324 133.191 75.7051C134.234 77.1235 134.963 78.4158 135.378 79.5819C135.677 80.4309 135.566 81.3617 135.067 82.1289C132.343 86.3364 129.458 89.327 126.409 91.1Z" fill="#FF8712"/>
<path d="M66.0822 86.8652C65.7714 92.4502 67.9214 96.2826 72.5323 98.3625C80.5994 101.997 89.3549 102.884 98.7987 101.022C101.67 100.456 107.946 98.6898 117.627 95.7235C108.265 101.547 97.8548 104.53 86.3979 104.673C86.076 104.673 85.7651 104.581 85.5098 104.418L83.9889 103.436C83.7446 103.272 83.4449 103.18 83.1451 103.159C77.0725 102.842 69.2903 102.065 66.0153 97.196C64.0318 94.2433 64.0543 90.8 66.0822 86.8652Z" fill="#FF8712"/>
<path d="M47.688 50.6654C43.277 51.6882 39.9391 51.2689 37.6743 49.4072C35.343 47.491 34.6214 44.6849 35.5095 40.9888C39.2397 37.8997 44.9459 38.4827 47.688 42.2265C49.5198 44.7326 49.5198 48.0672 47.688 50.6654Z" fill="#FFFFFA"/>
<path d="M35.5095 40.9888C34.6214 44.6849 35.343 47.491 37.6743 49.4072C39.9391 51.2689 43.277 51.6882 47.688 50.6654C45.7896 53.3658 42.314 54.7159 38.9724 54.0613C36.3006 52.4383 34.2098 50.1845 32.6999 47.3C32.5445 44.9269 33.5778 42.5948 35.5095 40.9888Z" fill="#7C8B9E"/>
<path d="M38.9724 54.0613C37.8067 53.8362 36.7303 53.3658 35.7978 52.7009C33.9771 51.4019 32.8443 49.4378 32.6999 47.3C34.2098 50.1845 36.3006 52.4383 38.9724 54.0613Z" fill="#FFFFFA"/>
<path d="M54.9918 90.5168C54.792 91.6692 54.1859 92.706 53.1719 93.6266C52.8833 93.8926 52.7057 94.2404 52.6724 94.6086C52.3837 97.5955 53.3273 99.0275 56.1139 101.114C57.1722 101.919 58.1677 102.836 59.1002 103.866C53.1053 103.47 49.6519 100.964 48.7416 96.3473L54.9918 90.5168Z" fill="#C42E37"/>
<path d="M48.7416 96.3473C49.6519 100.964 53.1053 103.47 59.1002 103.866C59.9587 103.92 60.577 104.172 60.9544 104.623C61.1432 104.848 60.9988 105.175 60.688 105.216C60.3105 105.257 59.8702 105.206 59.3669 105.062L50.4079 103.354L47.2207 102.505C46.9098 100.125 47.4168 98.0725 48.7416 96.3473Z" fill="#812940"/>
<path d="M143.961 93.5551L158.293 84.6764L162.956 81.3316C163.222 81.1372 163.311 80.7997 163.167 80.5133L161.723 77.6083C166.564 72.0437 168.84 69.2922 169.961 62.3365C169.994 62.132 169.85 61.9376 169.628 61.9069C169.417 61.866 169.184 61.999 169.15 62.1933C169.032 62.8821 168.658 63.431 168.029 63.8402C168.888 55.5889 165.431 49.6527 157.66 46.0317C153.36 44.0268 149.978 43.2392 147.513 43.6688L147.458 43.6279C147.473 43.5256 147.421 43.4608 147.302 43.4335L147.269 43.3926L147.313 43.3517C149.874 43.2358 151.38 43.2085 151.832 43.2699C159.625 44.3132 170.749 48.2513 174.357 54.8183C178.476 62.3263 174.246 71.3277 168.351 77.373C161.564 84.3355 153.434 89.7295 143.961 93.5551Z" fill="#062772"/>
<path d="M115.718 56.0455C115.718 55.8682 115.896 55.9466 116.251 56.2807C118.405 58.7254 121.691 60.7098 123.6 62.2953C126.864 65.0094 129.725 68.2451 132.182 72.0025C132.426 72.3708 132.748 72.6981 133.125 72.9436L140.453 77.7C140.863 77.966 141.052 78.4467 140.908 78.8968L139.864 82.1496C139.731 82.5792 140.197 82.9577 140.641 82.7735C141.722 82.3098 142.799 82.0848 143.872 82.0984C141.585 84.076 139.068 85.7977 136.323 87.2639C135.405 87.7549 134.698 88.3038 134.202 88.9107C133.902 89.279 134.38 89.7495 134.802 89.5142L151.554 80.1855L150.067 85.5764L140.364 90.834C138.966 91.2295 136.912 92.1058 134.203 93.4629C130.221 95.4541 123.782 97.8238 114.886 100.572C112.584 101.281 109.224 102.13 104.806 103.119C101.394 103.876 98.0375 104.752 94.7366 105.748C84.1382 108.516 73.3511 109.73 62.3753 109.389C61.2133 109.587 60.0625 109.406 58.9227 108.847L59.3669 105.062C59.8702 105.206 60.3105 105.257 60.688 105.216C60.9988 105.175 61.1432 104.848 60.9544 104.623C60.577 104.172 59.9587 103.92 59.1002 103.866C58.1677 102.836 57.1722 101.919 56.1139 101.114C53.3273 99.0275 52.3837 97.5955 52.6724 94.6086C52.7057 94.2404 52.8833 93.8926 53.1719 93.6266C54.1859 92.706 54.792 91.6692 54.9918 90.5168L57.1901 88.4608C58.167 88.5562 58.8146 88.3005 59.1328 87.6936C63.6549 78.8422 67.1075 72.739 69.4907 69.3839C70.0235 68.6406 71.4261 67.2665 73.6982 65.2616C75.3042 63.8432 76.8918 62.6533 78.4608 61.6918C85.1958 57.532 92.5377 54.6918 100.486 53.1711C105.778 53.2461 110.855 54.2043 115.718 56.0455ZM87.7421 58.8277C78.7868 62.2715 72.5841 67.9827 69.1352 75.9612C68.5061 77.4069 67.4884 81.0416 66.0822 86.8652C64.0543 90.8 64.0318 94.2433 66.0153 97.196C69.2903 102.065 77.0725 102.842 83.1451 103.159C83.4449 103.18 83.7446 103.272 83.9889 103.436L85.5098 104.418C85.7651 104.581 86.076 104.673 86.3979 104.673C97.8548 104.53 108.265 101.547 117.627 95.7235L126.409 91.1C129.458 89.327 132.343 86.3364 135.067 82.1289C135.566 81.3617 135.677 80.4309 135.378 79.5819C134.963 78.4158 134.234 77.1235 133.191 75.7051C132.991 75.4324 130.341 72.2512 125.242 66.1616C119.824 59.6901 113.287 56.383 105.627 56.2398C98.7438 55.6534 92.7822 56.516 87.7421 58.8277ZM61.9645 88.5121L56.5692 93.4833C55.6366 94.3425 55.6477 95.7234 56.5802 96.5724C57.5498 97.4385 58.8302 98.1579 60.4214 98.7307C60.6768 98.8228 60.9099 98.5569 60.7545 98.3523C59.0226 96.0099 60.2771 93.7288 61.0209 91.3762C61.1208 91.0795 61.2762 90.8033 61.4872 90.5681C61.9164 90.0771 62.2236 89.4668 62.4086 88.7371C62.4641 88.5018 62.1533 88.3382 61.9645 88.5121Z" fill="#E95328"/>
<path d="M161.723 77.6083L156.817 81.1063L150.067 85.5764L151.554 80.1855C152.501 79.4626 154.019 78.5045 156.106 77.3112C158.444 75.9746 160.835 74.1641 163.277 71.8796C165.816 69.2406 167.4 66.5611 168.029 63.8402C168.658 63.431 169.032 62.8821 169.15 62.1933C169.184 61.999 169.417 61.866 169.628 61.9069C169.85 61.9376 169.994 62.132 169.961 62.3365C168.84 69.2922 166.564 72.0437 161.723 77.6083Z" fill="#A3343B"/>
<path d="M161.723 77.6083L163.167 80.5133C163.311 80.7997 163.222 81.1372 162.956 81.3316L158.293 84.6764L156.817 81.1063L161.723 77.6083Z" fill="#3D1745"/>
<path d="M156.817 81.1063L158.293 84.6764L143.961 93.5551L129.018 99.273L126.764 99.764L140.364 90.834L150.067 85.5764L156.817 81.1063Z" fill="#6B1D43"/>
<path d="M140.364 90.834L126.764 99.764C126.624 99.9072 126.494 99.9242 126.376 99.8151C121.883 101.711 117.295 103.614 112.61 105.523C109.953 106.607 104.887 108.186 97.4116 110.259C95.0951 110.736 92.8117 111.07 90.5618 111.261C86.9316 111.578 84.0118 112.826 80.426 112.223C80.2151 112.192 80.0708 112.018 80.0708 111.824C80.0708 111.629 80.2262 111.466 80.4371 111.435L94.7471 109.389C95.2134 109.318 95.4576 108.847 95.2134 108.479C94.7323 107.736 94.5738 106.825 94.7366 105.748C98.0375 104.752 101.394 103.876 104.806 103.119C109.224 102.13 112.584 101.281 114.886 100.572C123.782 97.8238 130.221 95.4541 134.203 93.4629C136.912 92.1058 138.966 91.2295 140.364 90.834Z" fill="#C42E37"/>
<path d="M90.2623 42.1345L90.34 42.2265V42.513C90.34 42.5846 90.2734 42.6459 90.1957 42.6357C77.2956 41.831 64.4954 42.2709 51.7951 43.9552C51.4176 44.0064 51.0846 43.7404 51.0846 43.3926V43.2904C51.0846 42.8607 51.4287 42.513 51.895 42.4618C63.3445 41.2071 71.8705 40.7365 77.4732 41.0502C81.4254 41.2684 85.6884 41.6299 90.2623 42.1345Z" fill="#4187D2"/>
<path d="M36.2525 99.0276L34.2653 104.766C22.6086 100.899 10.6077 92.6652 8.35407 80.8508C5.74518 67.2362 18.0014 55.9639 30.3908 50.3278C30.7461 50.1642 31.1235 50.5119 30.9459 50.8393L30.4241 51.8008C30.302 52.0054 30.1355 52.1895 29.9246 52.3225C19.378 59.0122 10.3968 68.7296 14.1935 81.2089C16.425 88.5532 24.6735 94.7008 32.156 97.5137C33.6436 98.0661 35.0091 98.5707 36.2525 99.0276Z" fill="#4187D2"/>
<path d="M37.9402 99.7636L41.3479 100.858C41.4663 101.063 41.6439 101.104 41.8808 100.981C40.1267 102.918 39.291 104.728 39.3724 106.413L34.2653 104.766L36.2525 99.0276L37.9402 99.7636Z" fill="#7C8B9E"/>
<path d="M47.2207 102.505L50.4079 103.354C48.2098 105.502 47.691 107.163 48.853 108.336L39.3724 106.413C39.291 104.728 40.1267 102.918 41.8808 100.981L47.2207 102.505Z" fill="#AD6990"/>
<path d="M59.3669 105.062L58.9227 108.847L48.853 108.336C47.691 107.163 48.2098 105.502 50.4079 103.354L59.3669 105.062Z" fill="#CE5A62"/>
<path d="M94.7366 105.748C94.5738 106.825 94.7323 107.736 95.2134 108.479C95.4576 108.847 95.2134 109.318 94.7471 109.389L80.4371 111.435C80.2262 111.466 80.0708 111.629 80.0708 111.824C80.0708 112.018 80.2151 112.192 80.426 112.223C84.0118 112.826 86.9316 111.578 90.5618 111.261C92.8117 111.07 95.0951 110.736 97.4116 110.259C97.0934 111.473 96.4236 112.322 95.4022 112.806C93.3373 113.072 91.7945 113.471 89.5742 113.287C87.8645 113.143 85.7219 113.317 83.1463 113.808C81.185 114.183 76.1597 114.408 68.0703 114.483C67.5596 114.49 66.7677 114.337 65.6946 114.023C65.4725 113.952 65.2505 113.921 65.0174 113.911L55.4144 113.686C53.8232 112.683 53.035 111.694 53.0498 110.719L58.0011 110.658C58.3786 110.648 58.756 110.729 59.1002 110.873C60.8024 111.623 62.7674 112.039 64.9952 112.121C65.1284 112.121 65.2505 112.039 65.2727 111.916C65.2949 111.793 65.2172 111.67 65.084 111.64C63.3965 111.183 62.4937 110.433 62.3753 109.389C73.3511 109.73 84.1382 108.516 94.7366 105.748Z" fill="#812940"/>
<path d="M53.0498 110.719C53.035 111.694 53.8232 112.683 55.4144 113.686C47.6359 113.147 40.1938 111.425 33.0888 108.52C32.9556 108.469 32.9001 108.325 32.9556 108.203C33.0111 108.08 33.1554 108.008 33.2997 108.049C37.881 109.318 40.8969 109.993 42.3475 110.075C45.9371 110.286 49.5047 110.501 53.0498 110.719Z" fill="#3D1745"/>
<path d="M62.4086 88.7371C62.2236 89.4668 61.9164 90.0771 61.4872 90.5681C61.2762 90.8033 61.1208 91.0795 61.0209 91.3762C60.2771 93.7288 59.0226 96.0099 60.7545 98.3523C60.9099 98.5569 60.6768 98.8228 60.4214 98.7307C58.8302 98.1579 57.5498 97.4385 56.5802 96.5724C55.6477 95.7234 55.6366 94.3425 56.5692 93.4833L61.9645 88.5121C62.1533 88.3382 62.4641 88.5018 62.4086 88.7371Z" fill="#812940"/>
</svg>
