<svg width="165" height="118" viewBox="0 0 165 118" fill="none" xmlns="http://www.w3.org/2000/svg">
<path d="M73.0524 0.932257C73.0378 0.976436 73.0103 1.01411 72.9729 1.04116C72.9354 1.06821 72.8894 1.08361 72.8399 1.08567C72.7904 1.08774 72.7392 1.07639 72.692 1.05286C72.6449 1.02933 72.6035 0.994535 72.5724 0.952258C72.419 0.752258 72.3857 0.508924 72.4724 0.222257C72.4883 0.169575 72.5182 0.121212 72.5584 0.0829615C72.5987 0.0447107 72.6476 0.018193 72.6993 0.00658554C72.751 -0.00502195 72.8033 -0.00122784 72.85 0.0175137C72.8966 0.0362552 72.9357 0.0691502 72.9624 0.112257C73.1224 0.392257 73.1524 0.66559 73.0524 0.932257Z" fill="#7C8B9E"/>
<path d="M40.8324 0.952256C41.2257 0.658922 41.5324 0.535588 41.7524 0.582255C41.8298 0.597882 41.9014 0.633927 41.9601 0.68678C42.0188 0.739632 42.0625 0.807435 42.0868 0.883395C42.1111 0.959355 42.1152 1.0408 42.0986 1.11958C42.082 1.19836 42.0454 1.2717 41.9924 1.33225C41.7524 1.60559 41.399 1.67559 40.9324 1.54226C40.8717 1.52564 40.8171 1.49204 40.7749 1.44543C40.7327 1.39882 40.7047 1.34112 40.6942 1.27914C40.6837 1.21716 40.6912 1.15346 40.7156 1.09555C40.7401 1.03764 40.7806 0.987926 40.8324 0.952256Z" fill="#3D1745"/>
<path d="M139.872 3.23225C139.906 3.33891 139.812 3.49892 139.592 3.71225C139.497 3.80548 139.38 3.8759 139.252 3.91592C139.125 3.95593 138.992 3.96403 138.869 3.93935C138.745 3.91466 138.636 3.85812 138.552 3.77581C138.468 3.69351 138.413 3.58855 138.392 3.47225C138.352 3.23225 138.509 3.03891 138.862 2.89225C138.965 2.85099 139.073 2.82707 139.181 2.82199C139.289 2.81691 139.394 2.83078 139.489 2.86273C139.584 2.89468 139.667 2.94401 139.733 3.00761C139.799 3.07121 139.846 3.1477 139.872 3.23225Z" fill="#7C8B9E"/>
<path d="M2.42983 4.66397C2.46864 4.26823 2.26394 3.92425 1.97262 3.89569C1.68131 3.86713 1.4137 4.16479 1.37489 4.56054C1.33609 4.95628 1.54079 5.30025 1.8321 5.32882C2.12342 5.35738 2.39103 5.05972 2.42983 4.66397Z" fill="#7C8B9E"/>
<path d="M160.422 5.98225C160.464 6.00119 160.499 6.03162 160.523 6.07027C160.547 6.10892 160.56 6.15434 160.56 6.20163C160.56 6.24893 160.547 6.29632 160.523 6.33871C160.499 6.38111 160.464 6.4169 160.422 6.44225C160.162 6.59559 159.899 6.60225 159.632 6.46225C159.572 6.43035 159.524 6.38018 159.495 6.31901C159.465 6.25784 159.456 6.18884 159.468 6.12201C159.48 6.05517 159.513 5.99398 159.563 5.94728C159.612 5.90058 159.675 5.8708 159.742 5.86225C159.962 5.84225 160.189 5.88225 160.422 5.98225Z" fill="#7C8B9E"/>
<path d="M104.182 7.15225C104.336 6.89892 104.549 6.76892 104.822 6.76225C104.87 6.75809 104.913 6.77298 104.946 6.80526C104.979 6.83754 105.001 6.88594 105.01 6.94505C105.018 7.00417 105.012 7.07168 104.993 7.14005C104.974 7.20842 104.943 7.27496 104.902 7.33225C104.829 7.43225 104.712 7.51558 104.552 7.58225C104.494 7.60534 104.431 7.60975 104.37 7.59486C104.309 7.57997 104.255 7.54652 104.214 7.49918C104.173 7.45184 104.148 7.39298 104.143 7.33078C104.137 7.26859 104.151 7.20618 104.182 7.15225Z" fill="#6B1D43"/>
<path d="M87.5224 8.01225C87.2624 7.68225 87.5224 6.82225 88.0524 7.03225C88.1457 7.06559 88.2124 7.21559 88.2524 7.48225C88.2681 7.58959 88.2538 7.70472 88.2117 7.80999C88.1695 7.91525 88.1018 8.00484 88.0189 8.065C87.936 8.12517 87.8426 8.15259 87.7529 8.14306C87.6632 8.13353 87.5822 8.08758 87.5224 8.01225Z" fill="#7C8B9E"/>
<path d="M51.3224 10.8922C51.3986 10.909 51.4676 10.9494 51.5195 11.0077C51.5714 11.066 51.6035 11.1392 51.6113 11.2169C51.6191 11.2945 51.6021 11.3727 51.5628 11.4401C51.5234 11.5075 51.4638 11.5608 51.3924 11.5922C51.2657 11.6522 51.0557 11.6656 50.7624 11.6322C50.6845 11.6237 50.6124 11.5903 50.5563 11.5367C50.5003 11.4832 50.463 11.4122 50.4497 11.3338C50.4365 11.2553 50.4479 11.1734 50.4825 11.0996C50.517 11.0258 50.573 10.9638 50.6424 10.9222C50.7957 10.8356 51.0224 10.8256 51.3224 10.8922Z" fill="#7C8B9E"/>
<path d="M25.8724 13.1623C26.0924 12.9489 26.4057 12.9056 26.8124 13.0323C26.9857 13.0856 27.0657 13.2656 27.0524 13.5723C27.0457 13.7523 26.9257 13.8689 26.6924 13.9223C26.5582 13.951 26.4099 13.9476 26.2692 13.9125C26.1285 13.8773 26.0029 13.8124 25.911 13.7272C25.8191 13.642 25.7657 13.5411 25.7588 13.4394C25.7518 13.3377 25.7916 13.2405 25.8724 13.1623Z" fill="#7C8B9E"/>
<path d="M113.532 15.0722C113.366 14.9256 113.356 14.6422 113.502 14.2222C113.518 14.1756 113.546 14.1344 113.583 14.103C113.621 14.0716 113.667 14.0512 113.716 14.044C113.765 14.0368 113.816 14.0431 113.863 14.0622C113.91 14.0812 113.951 14.1124 113.982 14.1522C114.102 14.3256 114.099 14.5922 113.972 14.9522C113.959 14.9957 113.935 15.0351 113.902 15.0668C113.869 15.0984 113.829 15.1213 113.785 15.1333C113.741 15.1452 113.695 15.1459 113.651 15.1352C113.607 15.1246 113.566 15.1029 113.532 15.0722Z" fill="#7C8B9E"/>
<path d="M96.1724 16.1722C96.1296 16.233 96.0736 16.2832 96.0086 16.3191C95.9436 16.355 95.8713 16.3757 95.7971 16.3795C95.7229 16.3834 95.6488 16.3703 95.5805 16.3414C95.5121 16.3124 95.4512 16.2682 95.4024 16.2122C94.689 15.3856 94.8024 14.8356 95.7424 14.5622C95.8863 14.5195 96.04 14.5228 96.1819 14.5717C96.3239 14.6206 96.447 14.7126 96.534 14.8349C96.6211 14.9573 96.6677 15.1037 96.6674 15.2539C96.6671 15.404 96.6199 15.5503 96.5324 15.6722L96.1724 16.1722Z" fill="#7C8B9E"/>
<path d="M12.9106 17.4629C13.2883 17.157 13.3804 16.6446 13.1162 16.3184C12.8521 15.9922 12.3318 15.9758 11.9541 16.2816C11.5764 16.5875 11.4843 17.0999 11.7485 17.426C12.0126 17.7522 12.5329 17.7687 12.9106 17.4629Z" fill="#7C8B9E"/>
<path d="M76.7524 16.5123C76.9125 16.5123 77.0424 16.3824 77.0424 16.2222C77.0424 16.0621 76.9125 15.9323 76.7524 15.9323C76.5922 15.9323 76.4624 16.0621 76.4624 16.2222C76.4624 16.3824 76.5922 16.5123 76.7524 16.5123Z" fill="#6B1D43"/>
<path d="M126.212 18.7944C126.221 18.325 125.947 17.9391 125.599 17.9324C125.251 17.9257 124.961 18.3008 124.952 18.7702C124.943 19.2395 125.218 19.6254 125.566 19.6321C125.914 19.6388 126.203 19.2637 126.212 18.7944Z" fill="#7C8B9E"/>
<path d="M63.8924 19.4922C64.0324 19.6456 64.0857 19.7989 64.0524 19.9522C64.0418 20.0212 64.0096 20.085 63.9604 20.1346C63.9112 20.1841 63.8476 20.2167 63.7788 20.2278C63.7099 20.239 63.6392 20.2279 63.577 20.1964C63.5148 20.1648 63.4641 20.1144 63.4324 20.0522C63.399 19.9856 63.3657 19.8989 63.3324 19.7922C63.3099 19.7219 63.3128 19.6466 63.3404 19.5788C63.3681 19.5111 63.4188 19.455 63.4843 19.4199C63.5498 19.3849 63.626 19.3729 63.7003 19.3861C63.7745 19.3992 63.8423 19.4367 63.8924 19.4922Z" fill="#7C8B9E"/>
<path d="M3.15236 29.7623C3.14405 29.8309 3.11448 29.8945 3.06752 29.9446C3.02056 29.9947 2.95841 30.0291 2.88922 30.0431C2.82002 30.0572 2.74702 30.0503 2.67977 30.0234C2.61252 29.9965 2.55416 29.9507 2.51236 29.8923C2.37903 29.7123 2.34569 29.4889 2.41236 29.2223C2.42924 29.1457 2.46937 29.0763 2.52724 29.0235C2.58512 28.9706 2.65791 28.937 2.73566 28.9271C2.8134 28.9173 2.89229 28.9317 2.96151 28.9684C3.03074 29.0051 3.08692 29.0624 3.12236 29.1323C3.1757 29.2456 3.18569 29.4556 3.15236 29.7623Z" fill="#7C8B9E"/>
<path d="M119.382 31.2722C119.396 31.1522 119.442 31.0156 119.522 30.8622C119.548 30.8161 119.585 30.7782 119.631 30.7525C119.677 30.7268 119.73 30.7143 119.783 30.7164C119.836 30.7184 119.889 30.7349 119.934 30.7641C119.98 30.7934 120.017 30.8342 120.042 30.8822C120.122 31.0556 120.099 31.2422 119.972 31.4422C119.937 31.5087 119.879 31.562 119.808 31.5924C119.737 31.6227 119.659 31.628 119.587 31.6074C119.516 31.5867 119.456 31.5415 119.418 31.4799C119.38 31.4184 119.368 31.3447 119.382 31.2722Z" fill="#7C8B9E"/>
<path d="M159.882 31.6923C160.016 31.8056 160.099 31.9656 160.132 32.1723C160.142 32.2366 160.134 32.303 160.109 32.3633C160.084 32.4237 160.043 32.4755 159.991 32.5125C159.939 32.5495 159.879 32.5701 159.817 32.5718C159.755 32.5735 159.694 32.5563 159.642 32.5223C159.502 32.4289 159.439 32.2423 159.452 31.9623C159.455 31.9065 159.472 31.8512 159.5 31.8024C159.527 31.7535 159.565 31.713 159.61 31.6852C159.654 31.6573 159.703 31.6433 159.751 31.6445C159.799 31.6458 159.844 31.6623 159.882 31.6923Z" fill="#7C8B9E"/>
<path d="M100.442 35.3223L87.8324 34.2523C82.5857 34.0389 77.1424 34.6822 71.5024 36.1822C69.8024 36.3222 68.1524 36.8989 66.5524 37.9123C66.4889 37.9515 66.4365 38.0061 66.3999 38.0711C66.3632 38.1362 66.3436 38.2097 66.3426 38.2851C66.3416 38.3604 66.3593 38.4352 66.3942 38.5028C66.4291 38.5704 66.48 38.6286 66.5424 38.6723C66.8824 38.9123 66.979 39.2123 66.8324 39.5723C66.7974 39.661 66.7449 39.7421 66.678 39.8108C66.611 39.8794 66.5309 39.9343 66.4424 39.9722C63.9224 41.1122 61.9057 42.7523 60.3924 44.8923L54.9624 49.9523C54.8938 50.0148 54.8457 50.0966 54.8244 50.1869C54.8032 50.2773 54.8097 50.3719 54.8433 50.4585C54.8768 50.545 54.9357 50.6194 55.0123 50.6718C55.0889 50.7242 55.1796 50.7523 55.2724 50.7522H56.6624C56.7717 50.7549 56.8768 50.7947 56.9604 50.8652C57.0439 50.9357 57.1009 51.0326 57.1219 51.1399C57.1429 51.2472 57.1266 51.3585 57.0758 51.4553C57.025 51.5521 56.9426 51.6286 56.8424 51.6723C55.4024 52.2389 54.5724 53.2156 54.3524 54.6022C51.3257 57.6889 49.0324 61.2989 47.4724 65.4322C45.3457 65.3189 43.1524 66.6456 40.8924 69.4123C40.5724 69.7989 40.149 69.6856 39.6224 69.0722L46.3724 61.4622C46.6038 61.2047 46.732 60.8735 46.7324 60.5322C46.7724 55.3122 50.5024 51.3122 54.1424 47.6322C54.4743 47.3003 54.7601 46.927 54.9924 46.5222C56.239 44.3422 58.0424 42.3523 60.4024 40.5523C60.501 40.479 60.5688 40.3713 60.5928 40.2495C60.6168 40.1278 60.5953 40.0006 60.5324 39.8923L60.4024 39.6522C60.3868 39.6245 60.3658 39.6001 60.3408 39.5805C60.3157 39.5609 60.2869 39.5465 60.2562 39.5381C60.2255 39.5298 60.1934 39.5276 60.1619 39.5317C60.1303 39.5359 60.0999 39.5462 60.0724 39.5622L53.7924 43.1923C53.7751 43.2019 53.7562 43.2083 53.7367 43.2111C53.7173 43.2138 53.6977 43.2128 53.6791 43.2082C53.6605 43.2035 53.6432 43.1953 53.6284 43.184C53.6135 43.1727 53.6012 43.1585 53.5924 43.1423L53.4624 42.9123C53.4531 42.8985 53.449 42.8819 53.4509 42.8654C53.4527 42.8489 53.4603 42.8336 53.4724 42.8223C56.6857 40.0689 59.8857 38.0522 63.0724 36.7722C66.0324 35.5856 69.9724 34.5356 74.8924 33.6223C75.0512 33.5958 75.2036 33.5416 75.3424 33.4623L76.5924 32.7422C76.8827 32.5706 77.2057 32.4584 77.5424 32.4123C85.6357 31.1723 93.269 32.1423 100.442 35.3223Z" fill="#3D1745"/>
<path d="M100.442 35.3223L106.522 38.2223C106.416 39.7756 106.626 41.2123 107.152 42.5323C107.244 42.7671 107.4 42.9688 107.602 43.1123L112.382 46.4923C114.942 50.0389 117.879 51.9856 121.192 52.3323C127.486 52.9923 133.539 52.2456 139.352 50.0923C139.449 50.0531 139.558 50.0526 139.655 50.0907C139.752 50.1288 139.832 50.2027 139.876 50.2972C139.921 50.3918 139.928 50.4998 139.896 50.5993C139.863 50.6987 139.794 50.7821 139.702 50.8323L135.972 52.9823C135.871 53.0437 135.795 53.1401 135.759 53.2535C135.723 53.3669 135.729 53.4894 135.777 53.5984C135.825 53.7073 135.91 53.7952 136.018 53.8456C136.126 53.896 136.248 53.9054 136.362 53.8723C138.036 53.3456 139.566 52.3523 140.952 50.8923C141.016 50.8263 141.099 50.7829 141.189 50.7684C141.279 50.754 141.372 50.7694 141.452 50.8123C141.686 50.9456 141.756 51.1923 141.662 51.5523C139.016 55.4123 135.786 58.9456 131.972 62.1523C131.659 58.1456 130.592 56.3756 128.772 56.8423C123.232 57.1423 119.692 56.6423 116.462 53.5923C112.469 49.8323 108.179 46.4489 103.592 43.4423C102.699 42.8556 101.742 42.3889 100.722 42.0423C100.402 41.7156 100.242 41.6389 100.242 41.8123C100.396 41.0856 100.399 40.4823 100.252 40.0023C100.168 39.7295 99.996 39.4908 99.7624 39.3223C96.3557 36.9156 92.379 35.2256 87.8324 34.2523L100.442 35.3223Z" fill="#6B1D43"/>
<path d="M87.8324 34.2523C92.379 35.2256 96.3557 36.9156 99.7624 39.3223C99.996 39.4908 100.168 39.7295 100.252 40.0023C100.399 40.4823 100.396 41.0856 100.242 41.8123C95.8624 40.0123 91.289 39.0756 86.5224 39.0023C85.0624 38.7023 83.5624 38.5023 82.0224 38.4023C81.5557 38.3689 81.1724 38.4889 80.8724 38.7623C80.4324 39.1623 80.1124 39.3956 79.9124 39.4623C73.2324 41.6923 69.7524 43.2423 64.4924 46.8923C64.1884 47.1037 63.9303 47.3686 63.7324 47.6723C63.0057 48.8123 61.9457 50.0156 60.5524 51.2823C60.1457 51.6556 59.329 52.6623 58.1024 54.3023C57.3224 55.3423 56.389 56.2489 55.3024 57.0223C55.489 56.2956 55.1724 55.4889 54.3524 54.6023C54.5724 53.2156 55.4024 52.2389 56.8424 51.6723C56.9426 51.6286 57.025 51.5521 57.0758 51.4553C57.1266 51.3585 57.1429 51.2473 57.1219 51.14C57.1009 51.0327 57.0439 50.9357 56.9604 50.8652C56.8768 50.7947 56.7717 50.7549 56.6624 50.7523H55.2724C55.1796 50.7523 55.0889 50.7242 55.0123 50.6718C54.9357 50.6194 54.8768 50.545 54.8433 50.4585C54.8097 50.3719 54.8032 50.2773 54.8244 50.1869C54.8457 50.0966 54.8938 50.0148 54.9624 49.9523L60.3924 44.8923L70.8024 38.9823C70.9383 38.9055 71.0537 38.7963 71.139 38.664C71.2243 38.5318 71.2769 38.3802 71.2924 38.2223L71.5024 36.1823C77.1424 34.6823 82.5857 34.0389 87.8324 34.2523Z" fill="#A3343B"/>
<path d="M71.5024 36.1823L71.2924 38.2223C71.2769 38.3802 71.2243 38.5317 71.139 38.664C71.0537 38.7963 70.9383 38.9055 70.8024 38.9823L60.3924 44.8923C61.9057 42.7523 63.9224 41.1123 66.4424 39.9723C66.5309 39.9343 66.611 39.8794 66.678 39.8108C66.7449 39.7421 66.7974 39.661 66.8324 39.5723C66.979 39.2123 66.8824 38.9123 66.5424 38.6723C66.48 38.6286 66.4291 38.5704 66.3942 38.5028C66.3593 38.4352 66.3416 38.3604 66.3426 38.2851C66.3436 38.2097 66.3632 38.1362 66.3999 38.0711C66.4365 38.0061 66.4889 37.9515 66.5524 37.9123C68.1524 36.8989 69.8024 36.3223 71.5024 36.1823Z" fill="#6B1D43"/>
<path d="M136.822 37.9823C136.802 37.9823 136.496 37.8689 135.902 37.6423C135.83 37.6158 135.766 37.5688 135.719 37.5069C135.673 37.445 135.645 37.3709 135.64 37.2935C135.634 37.2162 135.652 37.139 135.689 37.0713C135.727 37.0036 135.784 36.9484 135.852 36.9123C136.159 36.7389 136.576 36.8089 137.102 37.1223C137.197 37.1736 137.27 37.2564 137.31 37.3562C137.349 37.456 137.353 37.5665 137.32 37.6686C137.286 37.7707 137.218 37.8579 137.128 37.9152C137.037 37.9725 136.929 37.9962 136.822 37.9823Z" fill="#7C8B9E"/>
<path d="M51.5624 38.4823C51.3957 38.3889 51.399 38.2489 51.5724 38.0623C51.7524 37.8823 52.0024 37.8556 52.3224 37.9823C52.3988 38.0138 52.4689 38.0666 52.5228 38.1331C52.5767 38.1996 52.6116 38.2764 52.6227 38.3527C52.6338 38.4291 52.6204 38.501 52.5844 38.5583C52.5485 38.6157 52.4918 38.6555 52.4224 38.6723C52.1757 38.7256 51.889 38.6623 51.5624 38.4823Z" fill="#7C8B9E"/>
<path d="M112.382 46.4922L107.602 43.1122C107.4 42.9687 107.244 42.7671 107.152 42.5322C106.626 41.2122 106.416 39.7756 106.522 38.2222C110.682 40.5222 114.362 43.5122 117.562 47.1922C117.567 47.201 117.568 47.211 117.567 47.2207C117.566 47.2305 117.562 47.2397 117.556 47.2472C117.549 47.2547 117.541 47.2601 117.531 47.2628C117.522 47.2654 117.512 47.2653 117.502 47.2622L110.822 42.5622C110.761 42.5247 110.688 42.5097 110.617 42.5199C110.546 42.5301 110.48 42.5648 110.432 42.618C110.383 42.6713 110.355 42.7397 110.351 42.8117C110.348 42.8836 110.369 42.9545 110.412 43.0122C111.259 44.0322 111.916 45.1922 112.382 46.4922Z" fill="#3D1745"/>
<path d="M86.5224 39.0023C79.3624 40.4889 72.749 43.2656 66.6824 47.3323C65.269 48.2723 63.839 49.4356 62.3924 50.8223C60.3457 52.7823 59.0824 54.1256 58.6024 54.8523C56.4557 58.1323 53.3457 64.0989 49.2724 72.7523C48.9857 73.3456 48.4024 73.5956 47.5224 73.5023C47.5624 73.2289 47.4057 73.0189 47.0524 72.8723C46.9779 72.8412 46.8976 72.8278 46.8178 72.833C46.7379 72.8382 46.6607 72.8619 46.5924 72.9023L39.7724 76.8423C39.7073 76.8799 39.6334 76.8994 39.5582 76.8987C39.4831 76.898 39.4095 76.8772 39.3451 76.8384C39.2808 76.7995 39.228 76.7442 39.1923 76.678C39.1567 76.6119 39.1394 76.5373 39.1424 76.4623L39.1724 75.9723L40.3524 74.8623C42.9724 72.3423 45.7124 69.9956 48.5724 67.8223C49.3924 67.2023 50.2124 65.9889 51.0324 64.1823C51.039 64.1689 51.0457 64.1556 51.0524 64.1423L55.3024 57.0223C56.389 56.2489 57.3224 55.3423 58.1024 54.3023C59.329 52.6623 60.1457 51.6556 60.5524 51.2823C61.9457 50.0156 63.0057 48.8123 63.7324 47.6723C63.9303 47.3686 64.1884 47.1037 64.4924 46.8923C69.7524 43.2423 73.2324 41.6923 79.9124 39.4623C80.1124 39.3956 80.4324 39.1623 80.8724 38.7623C81.1724 38.4889 81.5557 38.3689 82.0224 38.4023C83.5624 38.5023 85.0624 38.7023 86.5224 39.0023Z" fill="#C42E37"/>
<path d="M100.242 41.8123C100.242 41.6389 100.402 41.7156 100.722 42.0423C102.662 44.4323 105.622 46.3723 107.342 47.9223C110.282 50.5756 112.859 53.7389 115.072 57.4123C115.29 57.7751 115.579 58.0883 115.922 58.3323L122.522 62.9823C122.704 63.1106 122.841 63.2922 122.914 63.5018C122.988 63.7115 122.994 63.9388 122.932 64.1523L121.992 67.3323C121.964 67.4261 121.964 67.526 121.991 67.62C122.018 67.714 122.072 67.7983 122.146 67.8626C122.22 67.9269 122.311 67.9686 122.407 67.9827C122.504 67.9969 122.603 67.9828 122.692 67.9423C123.666 67.4889 124.636 67.2689 125.602 67.2823C123.542 69.2156 121.276 70.8989 118.802 72.3323C117.976 72.8123 117.339 73.3489 116.892 73.9423C116.839 74.0187 116.814 74.1108 116.82 74.2036C116.826 74.2965 116.864 74.3844 116.927 74.453C116.989 74.5217 117.074 74.5669 117.166 74.5813C117.257 74.5957 117.352 74.5784 117.432 74.5323L132.522 65.4123L131.182 70.6823L122.442 75.8223C121.182 76.2089 119.332 77.0656 116.892 78.3923C113.306 80.3389 107.506 82.6556 99.4924 85.3423C97.419 86.0356 94.3924 86.8656 90.4124 87.8323C87.339 88.5723 84.3157 89.4289 81.3424 90.4023C71.7957 93.1089 62.079 94.2956 52.1924 93.9623C51.1457 94.1556 50.109 93.9789 49.0824 93.4323L49.4824 89.7323C49.9357 89.8723 50.3324 89.9223 50.6724 89.8823C50.7358 89.8746 50.7961 89.8503 50.847 89.8116C50.8979 89.773 50.9376 89.7215 50.9621 89.6625C50.9865 89.6034 50.9948 89.5389 50.986 89.4756C50.9773 89.4123 50.9519 89.3525 50.9124 89.3023C50.5724 88.8623 50.0157 88.6156 49.2424 88.5623C48.4024 87.5556 47.5057 86.6589 46.5524 85.8723C44.0424 83.8323 43.1924 82.4323 43.4524 79.5123C43.4849 79.1501 43.6442 78.8104 43.9024 78.5523C44.8157 77.6523 45.3624 76.6389 45.5424 75.5123L47.5224 73.5023C48.4024 73.5956 48.9857 73.3456 49.2724 72.7523C53.3457 64.0989 56.4557 58.1323 58.6024 54.8523C59.0824 54.1256 60.3457 52.7823 62.3924 50.8223C63.839 49.4356 65.269 48.2723 66.6824 47.3323C72.749 43.2656 79.3624 40.4889 86.5224 39.0023C91.289 39.0756 95.8624 40.0123 100.242 41.8123ZM75.0424 44.5323C66.9757 47.8989 61.389 53.4823 58.2824 61.2823C57.7157 62.6956 56.799 66.2489 55.5324 71.9423C53.7057 75.7889 53.6857 79.1556 55.4724 82.0423C58.4224 86.8023 65.4324 87.5623 70.9024 87.8723C71.1769 87.8919 71.4397 87.9853 71.6624 88.1423L73.0324 89.1023C73.2668 89.2649 73.5459 89.3521 73.8324 89.3523C84.1524 89.2123 93.529 86.2956 101.962 80.6023L109.872 76.0823C112.619 74.3489 115.219 71.4256 117.672 67.3123C117.895 66.9417 118.035 66.5275 118.084 66.0978C118.132 65.6681 118.087 65.2331 117.952 64.8223C117.579 63.6823 116.922 62.4189 115.982 61.0323C115.802 60.7656 113.416 57.6556 108.822 51.7023C103.942 45.3756 98.0524 42.1423 91.1524 42.0023C84.9524 41.4289 79.5824 42.2723 75.0424 44.5323ZM51.8224 73.5523L46.9624 78.4123C46.7635 78.6114 46.6058 78.8479 46.4986 79.1079C46.3913 79.368 46.3366 79.6465 46.3375 79.9273C46.3385 80.2081 46.395 80.4857 46.504 80.744C46.613 81.0024 46.7722 81.2363 46.9724 81.4323C47.8457 82.2789 48.999 82.9823 50.4324 83.5423C50.4817 83.5616 50.536 83.5646 50.5872 83.5511C50.6385 83.5375 50.6841 83.508 50.7175 83.4668C50.7509 83.4257 50.7703 83.3749 50.773 83.322C50.7757 83.269 50.7614 83.2166 50.7324 83.1723C49.1724 80.8823 50.3024 78.6523 50.9724 76.3523C51.0581 76.062 51.201 75.7932 51.3924 75.5623C51.779 75.0823 52.0557 74.4856 52.2224 73.7723C52.2319 73.7225 52.2254 73.671 52.2038 73.6251C52.1822 73.5792 52.1467 73.5414 52.1023 73.5169C52.0579 73.4925 52.0069 73.4828 51.9566 73.4891C51.9063 73.4955 51.8593 73.5176 51.8224 73.5523Z" fill="#E95328"/>
<path d="M124.442 40.2123C124.509 40.0323 124.566 39.9323 124.612 39.9123C124.683 39.877 124.764 39.8679 124.842 39.8866C124.919 39.9052 124.987 39.9504 125.034 40.0138C125.08 40.0772 125.101 40.1545 125.094 40.2314C125.086 40.3083 125.05 40.3797 124.992 40.4323C124.892 40.5256 124.746 40.5323 124.552 40.4523C124.506 40.4343 124.469 40.3993 124.449 40.3545C124.428 40.3097 124.426 40.2587 124.442 40.2123Z" fill="#7C8B9E"/>
<path d="M91.1524 42.0023C96.1524 44.0956 99.729 45.8956 101.882 47.4023C105.716 50.0756 108.639 53.9356 110.652 58.9823C111.292 61.0689 111.852 62.9389 112.332 64.5923C112.972 66.7989 112.269 68.2823 110.222 69.0423C109.636 57.6489 104.222 50.3089 93.9824 47.0223C88.7424 45.3556 83.7357 45.4123 78.9624 47.1923C66.789 51.7323 61.0257 60.5789 61.6724 73.7323C61.9657 79.7323 65.0424 83.2289 70.9024 84.2223L68.7324 85.0123C68.4298 85.1285 68.0949 85.1285 67.7924 85.0123C64.7924 83.8423 61.3724 83.0023 60.7024 79.8323C59.5357 74.2389 59.6657 68.7689 61.0924 63.4223C61.319 62.5623 62.1824 60.8189 63.6824 58.1923C64.4957 56.7723 65.6957 55.2656 67.2824 53.6723C70.0157 50.9189 72.6024 47.8723 75.0424 44.5323C79.5824 42.2723 84.9524 41.4289 91.1524 42.0023Z" fill="#FEC53B"/>
<path d="M109.872 76.0823L115.902 66.3523C116.001 66.1952 116.059 66.0161 116.071 65.8311C116.083 65.6461 116.049 65.4609 115.972 65.2923C114.752 62.6789 112.979 60.5756 110.652 58.9823C108.639 53.9356 105.716 50.0756 101.882 47.4023C99.729 45.8956 96.1524 44.0956 91.1524 42.0023C98.0524 42.1423 103.942 45.3756 108.822 51.7023C113.416 57.6556 115.802 60.7656 115.982 61.0323C116.922 62.4189 117.579 63.6823 117.952 64.8223C118.087 65.2331 118.132 65.6681 118.084 66.0978C118.035 66.5275 117.895 66.9417 117.672 67.3123C115.219 71.4256 112.619 74.3489 109.872 76.0823Z" fill="#FF8712"/>
<path d="M128.772 56.8423C127.812 57.6289 126.659 57.9422 125.312 57.7822C125.243 57.7738 125.173 57.7892 125.114 57.8257C125.056 57.8622 125.013 57.9176 124.992 57.9823L124.912 58.2523C124.899 58.2989 124.895 58.3479 124.902 58.396C124.909 58.4441 124.925 58.4903 124.951 58.5317C124.976 58.5731 125.01 58.6087 125.05 58.6364C125.089 58.664 125.135 58.683 125.182 58.6923C126.942 59.0389 128.259 59.8456 129.132 61.1123C129.231 61.2516 129.294 61.4135 129.317 61.5841C129.34 61.7547 129.321 61.929 129.262 62.0923L128.202 65.0523L125.602 67.2822C124.636 67.2689 123.666 67.4889 122.692 67.9423C122.603 67.9828 122.504 67.9969 122.407 67.9827C122.311 67.9686 122.22 67.9269 122.146 67.8626C122.072 67.7983 122.018 67.714 121.991 67.62C121.964 67.526 121.964 67.4261 121.992 67.3323L122.932 64.1523C122.994 63.9388 122.988 63.7115 122.914 63.5018C122.841 63.2922 122.704 63.1106 122.522 62.9823L115.922 58.3323C115.579 58.0883 115.29 57.7751 115.072 57.4123C112.859 53.7389 110.282 50.5756 107.342 47.9223C105.622 46.3723 102.662 44.4323 100.722 42.0423C101.742 42.3889 102.699 42.8556 103.592 43.4423C108.179 46.4489 112.469 49.8323 116.462 53.5923C119.692 56.6423 123.232 57.1423 128.772 56.8423Z" fill="#C42E37"/>
<path d="M45.3224 45.3623C45.1557 45.1289 45.1957 44.8923 45.4424 44.6523C45.709 44.3923 45.9424 44.3989 46.1424 44.6723C46.349 44.9589 46.4257 45.1823 46.3724 45.3423C46.3373 45.4383 46.2744 45.5194 46.1905 45.5768C46.1065 45.6342 46.0048 45.6657 45.8965 45.6677C45.7881 45.6698 45.6773 45.6424 45.576 45.5885C45.4748 45.5346 45.387 45.4564 45.3224 45.3623Z" fill="#6B1D43"/>
<path d="M75.0424 44.5323C72.6024 47.8723 70.0157 50.9189 67.2824 53.6723C65.6957 55.2656 64.4957 56.7723 63.6824 58.1923C62.1824 60.8189 61.319 62.5623 61.0924 63.4223C59.6657 68.7689 59.5357 74.2389 60.7024 79.8323C61.3724 83.0023 64.7924 83.8423 67.7924 85.0123C68.0949 85.1285 68.4298 85.1285 68.7324 85.0123L70.9024 84.2223C84.789 83.8289 97.1657 79.5423 108.032 71.3623L110.222 69.0423C112.269 68.2823 112.972 66.7989 112.332 64.5923C111.852 62.9389 111.292 61.0689 110.652 58.9823C112.979 60.5756 114.752 62.6789 115.972 65.2923C116.049 65.4609 116.083 65.6461 116.071 65.8311C116.059 66.0161 116.001 66.1952 115.902 66.3523L109.872 76.0823L101.962 80.6023C93.2424 83.5023 87.589 85.2289 85.0024 85.7823C76.4957 87.6023 68.609 86.7356 61.3424 83.1823C57.189 81.1489 55.2524 77.4023 55.5324 71.9423C56.799 66.2489 57.7157 62.6956 58.2824 61.2823C61.389 53.4823 66.9757 47.8989 75.0424 44.5323Z" fill="#FFAE0E"/>
<path d="M93.9824 47.0223L86.4624 48.7822C86.3937 48.7971 86.3324 48.8357 86.2893 48.8911C86.2461 48.9465 86.2237 49.0154 86.2261 49.0856C86.2285 49.1558 86.2555 49.223 86.3023 49.2754C86.3491 49.3278 86.4128 49.362 86.4824 49.3723C96.8724 51.1623 103.292 59.4122 103.292 69.9622C103.293 70.1213 103.34 70.2767 103.429 70.4085C103.519 70.5403 103.645 70.6426 103.792 70.7023C104.692 71.0756 105.686 71.0589 106.772 70.6523C107.232 70.4789 107.652 70.7156 108.032 71.3623C97.1657 79.5423 84.789 83.8289 70.9024 84.2223C65.0424 83.2289 61.9657 79.7323 61.6724 73.7323C61.0257 60.5789 66.789 51.7323 78.9624 47.1923C83.7357 45.4123 88.7424 45.3556 93.9824 47.0223Z" fill="#030914"/>
<path d="M110.222 69.0422L108.032 71.3622C107.652 70.7156 107.232 70.4789 106.772 70.6522C105.686 71.0589 104.692 71.0756 103.792 70.7023C103.645 70.6426 103.519 70.5403 103.429 70.4085C103.34 70.2767 103.293 70.1213 103.292 69.9622C103.292 59.4122 96.8724 51.1622 86.4824 49.3722C86.4128 49.362 86.3491 49.3277 86.3023 49.2754C86.2555 49.223 86.2285 49.1558 86.2261 49.0856C86.2237 49.0154 86.2461 48.9465 86.2893 48.8911C86.3324 48.8357 86.3937 48.7971 86.4624 48.7822L93.9824 47.0222C104.222 50.3089 109.636 57.6489 110.222 69.0422Z" fill="#210F2D"/>
<path d="M141.682 62.8922L137.262 66.3123L131.182 70.6822L132.522 65.4122C133.376 64.7056 134.742 63.7689 136.622 62.6022C138.729 61.2956 140.882 59.5256 143.082 57.2922C145.369 54.7122 146.796 52.0922 147.362 49.4322C147.929 49.0322 148.266 48.4956 148.372 47.8222C148.381 47.7769 148.398 47.7336 148.423 47.695C148.448 47.6563 148.481 47.623 148.519 47.597C148.557 47.5709 148.6 47.5527 148.645 47.5433C148.69 47.5339 148.737 47.5336 148.782 47.5422H148.802C148.896 47.5591 148.979 47.6121 149.035 47.6902C149.09 47.7684 149.115 47.8657 149.102 47.9622C148.092 54.7622 146.042 57.4522 141.682 62.8922Z" fill="#A3343B"/>
<path d="M127.232 47.9723C127.319 47.8182 127.46 47.7 127.628 47.6407C127.797 47.5813 127.981 47.585 128.144 47.6511C128.307 47.7172 128.438 47.8409 128.512 47.9982C128.586 48.1555 128.597 48.3351 128.542 48.5023C128.529 48.5423 128.369 48.7389 128.062 49.0923C128.017 49.1445 127.96 49.185 127.896 49.2106C127.832 49.2361 127.763 49.2459 127.694 49.239C127.626 49.2322 127.56 49.2089 127.502 49.1711C127.444 49.1334 127.396 49.0824 127.362 49.0223C127.116 48.5956 127.072 48.2456 127.232 47.9723Z" fill="#7C8B9E"/>
<path d="M24.3724 49.2123C24.2857 49.4856 24.0824 49.5589 23.7624 49.4323C23.489 49.3189 23.3757 49.1123 23.4224 48.8123C23.4381 48.7104 23.4804 48.6135 23.5445 48.5324C23.6086 48.4512 23.692 48.3891 23.7853 48.3528C23.8787 48.3165 23.9783 48.3075 24.0732 48.3268C24.168 48.3461 24.2543 48.393 24.3224 48.4623C24.469 48.6156 24.4857 48.8656 24.3724 49.2123Z" fill="#7C8B9E"/>
<path d="M0.642364 49.9622C0.690746 49.9958 0.727334 50.0437 0.746931 50.0992C0.766528 50.1547 0.768137 50.2149 0.751529 50.2714C0.734921 50.3279 0.700941 50.3777 0.654417 50.4137C0.607892 50.4498 0.551188 50.4703 0.492363 50.4722C0.345696 50.4789 0.265696 50.4822 0.252363 50.4822C0.198984 50.4753 0.148604 50.4536 0.106863 50.4196C0.0651211 50.3856 0.0336668 50.3406 0.0160213 50.2898C-0.00162415 50.2389 -0.00476521 50.1841 0.00695189 50.1316C0.018669 50.079 0.0447802 50.0308 0.0823627 49.9923C0.249029 49.8256 0.435697 49.8156 0.642364 49.9622Z" fill="#3D1745"/>
<path d="M141.662 51.5523L143.202 51.9623C143.278 51.9809 143.349 52.0165 143.41 52.0663C143.47 52.1162 143.518 52.179 143.551 52.2502C143.584 52.3213 143.6 52.3989 143.598 52.4772C143.597 52.5555 143.578 52.6324 143.542 52.7023L141.802 56.1623C141.735 56.297 141.706 56.4474 141.716 56.5976C141.727 56.7477 141.778 56.8922 141.864 57.0159C141.95 57.1396 142.068 57.238 142.204 57.3006C142.341 57.3633 142.493 57.3881 142.642 57.3723C142.769 57.3589 142.916 57.3323 143.082 57.2923C140.882 59.5256 138.729 61.2956 136.622 62.6023C134.742 63.7689 133.376 64.7056 132.522 65.4123L117.432 74.5323C117.352 74.5784 117.258 74.5957 117.166 74.5813C117.074 74.5669 116.989 74.5217 116.927 74.453C116.864 74.3844 116.826 74.2965 116.82 74.2037C116.814 74.1108 116.839 74.0187 116.892 73.9423C117.339 73.3489 117.976 72.8123 118.802 72.3323C121.276 70.8989 123.542 69.2156 125.602 67.2823L128.202 65.0523C129.836 64.5256 131.092 63.5589 131.972 62.1523C135.786 58.9456 139.016 55.4123 141.662 51.5523Z" fill="#3D1745"/>
<path d="M55.3024 57.0223L51.0524 64.1423C51.0457 64.1556 51.039 64.1689 51.0324 64.1823C50.2124 65.9889 49.3924 67.2023 48.5724 67.8223C45.7124 69.9956 42.9724 72.3423 40.3524 74.8623L40.7524 71.1623L47.4724 65.4323C49.0324 61.2989 51.3257 57.6889 54.3524 54.6022C55.1724 55.4889 55.489 56.2956 55.3024 57.0223Z" fill="#6B1D43"/>
<path d="M32.4824 55.5923C32.4157 55.5323 32.3924 55.4289 32.4124 55.2822C32.4202 55.2267 32.4435 55.1752 32.4804 55.1319C32.5173 55.0885 32.5666 55.0547 32.6243 55.0332C32.682 55.0117 32.7465 55.0031 32.8122 55.0081C32.878 55.0132 32.9432 55.0317 33.0024 55.0623C33.1424 55.1423 33.1624 55.2889 33.0624 55.5022C33.0371 55.5526 33.0001 55.5961 32.9544 55.6292C32.9087 55.6623 32.8555 55.6841 32.799 55.6928C32.7426 55.7016 32.6846 55.697 32.6296 55.6796C32.5746 55.6621 32.5242 55.6322 32.4824 55.5923Z" fill="#7C8B9E"/>
<path d="M163.472 55.0623C163.592 54.9863 163.722 54.9671 163.839 55.008C163.956 55.0488 164.054 55.1471 164.114 55.2859C164.175 55.4247 164.195 55.5952 164.17 55.768C164.146 55.9408 164.08 56.105 163.982 56.2323C163.802 56.4856 163.609 56.5823 163.402 56.5223C163.156 56.4423 163.059 56.2423 163.112 55.9223C163.192 55.4356 163.312 55.1489 163.472 55.0623Z" fill="#7C8B9E"/>
<path d="M131.972 62.1522C131.092 63.5589 129.836 64.5256 128.202 65.0523L129.262 62.0923C129.321 61.929 129.34 61.7547 129.317 61.5841C129.294 61.4135 129.231 61.2516 129.132 61.1122C128.259 59.8456 126.942 59.0389 125.182 58.6923C125.135 58.683 125.089 58.664 125.05 58.6363C125.01 58.6087 124.976 58.5731 124.951 58.5317C124.925 58.4903 124.909 58.4441 124.902 58.396C124.895 58.3479 124.899 58.2989 124.912 58.2522L124.992 57.9823C125.013 57.9176 125.056 57.8622 125.114 57.8257C125.173 57.7892 125.243 57.7738 125.312 57.7822C126.659 57.9422 127.812 57.6289 128.772 56.8423C130.592 56.3756 131.659 58.1456 131.972 62.1522Z" fill="#A3343B"/>
<path d="M20.6524 64.4423C21.1163 64.4423 21.4924 64.0662 21.4924 63.6022C21.4924 63.1383 21.1163 62.7623 20.6524 62.7623C20.1884 62.7623 19.8124 63.1383 19.8124 63.6022C19.8124 64.0662 20.1884 64.4423 20.6524 64.4423Z" fill="#FFFFFA"/>
<path d="M141.682 62.8923L142.982 65.7323C143.048 65.8671 143.065 66.0203 143.03 66.1661C142.995 66.3119 142.911 66.4412 142.792 66.5323L138.592 69.8023L137.262 66.3123L141.682 62.8923Z" fill="#3D1745"/>
<path d="M47.4724 65.4322L40.7524 71.1622L38.3124 72.7422L34.0524 73.6322C33.9653 73.6507 33.8739 73.6382 33.7942 73.5969C33.7146 73.5557 33.6518 73.4884 33.6171 73.407C33.5824 73.3256 33.5779 73.2352 33.6045 73.152C33.6311 73.0688 33.687 72.998 33.7624 72.9522L39.6224 69.0722C40.149 69.6856 40.5724 69.7989 40.8924 69.4122C43.1524 66.6456 45.3457 65.3189 47.4724 65.4322Z" fill="#210F2D"/>
<path d="M137.262 66.3123L138.592 69.8023L125.682 78.4823L112.222 84.0723L110.192 84.5523L122.442 75.8223L131.182 70.6823L137.262 66.3123Z" fill="#6B1D43"/>
<path d="M31.1024 69.0022C31.1469 69.0306 31.1811 69.0713 31.2012 69.1198C31.2213 69.1683 31.2264 69.2227 31.216 69.2767C31.2056 69.3308 31.1801 69.3825 31.1424 69.4258C31.1046 69.4692 31.0561 69.5026 31.0024 69.5222C30.7557 69.6022 30.579 69.5556 30.4724 69.3822C30.4393 69.3287 30.4213 69.2666 30.4205 69.2034C30.4197 69.1402 30.4361 69.0785 30.4677 69.0258C30.4994 68.9731 30.5449 68.9315 30.5989 68.906C30.653 68.8806 30.7132 68.8723 30.7724 68.8822C30.899 68.9022 31.009 68.9422 31.1024 69.0022Z" fill="#3D1745"/>
<path d="M40.7524 71.1622L40.3524 74.8622L39.1724 75.9722C36.259 78.2922 34.4824 81.3056 33.8424 85.0122C33.809 85.1989 33.7457 85.3322 33.6524 85.4122C33.539 85.5122 33.4057 85.5822 33.2524 85.6222L30.1824 84.5522C31.5424 81.8256 33.3057 79.4489 35.4724 77.4222C35.5389 77.3562 35.5795 77.2683 35.5865 77.1748C35.5936 77.0813 35.5667 76.9884 35.5109 76.913C35.455 76.8377 35.3738 76.7851 35.2823 76.7647C35.1907 76.7444 35.0949 76.7577 35.0124 76.8022L30.8124 79.2222C30.7486 79.2588 30.673 79.2688 30.6019 79.2501C30.5308 79.2314 30.4699 79.1855 30.4324 79.1222L30.2724 78.8422C30.2121 78.7379 30.1941 78.6141 30.2219 78.4956C30.2497 78.377 30.3212 78.2723 30.4224 78.2022L38.3124 72.7422L40.7524 71.1622Z" fill="#3D1745"/>
<path d="M55.5324 71.9422C55.2524 77.4022 57.189 81.1489 61.3424 83.1822C68.609 86.7356 76.4957 87.6022 85.0024 85.7822C87.589 85.2289 93.2424 83.5022 101.962 80.6022C93.529 86.2956 84.1524 89.2122 73.8324 89.3522C73.5459 89.3521 73.2668 89.2648 73.0324 89.1022L71.6624 88.1422C71.4397 87.9853 71.1769 87.8919 70.9024 87.8722C65.4324 87.5622 58.4224 86.8022 55.4724 82.0422C53.6857 79.1556 53.7057 75.7889 55.5324 71.9422Z" fill="#FF8712"/>
<path d="M47.5224 73.5023L45.5424 75.5123L39.9124 81.2123C38.719 82.8989 38.2624 84.9056 38.5424 87.2323L33.7324 85.7423C33.519 85.8623 33.359 85.8223 33.2524 85.6223C33.4057 85.5823 33.539 85.5123 33.6524 85.4123C33.7457 85.3323 33.809 85.1989 33.8424 85.0123C34.4824 81.3056 36.259 78.2923 39.1724 75.9723L39.1424 76.4623C39.1394 76.5373 39.1567 76.6119 39.1923 76.678C39.228 76.7442 39.2808 76.7995 39.3451 76.8384C39.4095 76.8772 39.4831 76.898 39.5582 76.8987C39.6334 76.8994 39.7073 76.8799 39.7724 76.8423L46.5924 72.9023C46.6607 72.8619 46.7379 72.8382 46.8178 72.833C46.8976 72.8278 46.9779 72.8412 47.0524 72.8723C47.4057 73.0189 47.5624 73.2289 47.5224 73.5023Z" fill="#6B1D43"/>
<path d="M52.2224 73.7722C52.0557 74.4856 51.779 75.0823 51.3924 75.5623C51.201 75.7932 51.0581 76.062 50.9724 76.3522C50.3024 78.6522 49.1724 80.8823 50.7324 83.1723C50.7614 83.2166 50.7757 83.269 50.773 83.322C50.7703 83.3749 50.7509 83.4257 50.7175 83.4668C50.6841 83.508 50.6385 83.5375 50.5872 83.5511C50.536 83.5646 50.4817 83.5615 50.4324 83.5422C48.999 82.9822 47.8457 82.2789 46.9724 81.4322C46.7722 81.2363 46.613 81.0023 46.504 80.744C46.395 80.4857 46.3385 80.2081 46.3375 79.9273C46.3366 79.6465 46.3913 79.368 46.4986 79.1079C46.6058 78.8479 46.7635 78.6114 46.9624 78.4122L51.8224 73.5522C51.8593 73.5176 51.9063 73.4955 51.9566 73.4891C52.0069 73.4828 52.0579 73.4925 52.1023 73.5169C52.1467 73.5414 52.1822 73.5792 52.2038 73.6251C52.2254 73.671 52.2319 73.7225 52.2224 73.7722Z" fill="#812940"/>
<path d="M146.894 74.4326C147.138 74.2254 147.215 73.914 147.065 73.7371C146.915 73.5602 146.595 73.5847 146.351 73.7919C146.106 73.9991 146.03 74.3105 146.18 74.4874C146.33 74.6643 146.65 74.6398 146.894 74.4326Z" fill="#3D1745"/>
<path d="M45.5424 75.5123C45.3624 76.6389 44.8157 77.6523 43.9024 78.5523C43.6442 78.8104 43.4849 79.1501 43.4524 79.5123C43.1924 82.4323 44.0424 83.8323 46.5524 85.8723C47.5057 86.6589 48.4024 87.5556 49.2424 88.5623C43.8424 88.1756 40.7324 85.7256 39.9124 81.2122L45.5424 75.5123Z" fill="#C42E37"/>
<path d="M122.442 75.8223L110.192 84.5523C110.066 84.6923 109.949 84.7089 109.842 84.6022C105.796 86.4556 101.662 88.3156 97.4424 90.1823C95.049 91.2423 90.4857 92.7856 83.7524 94.8123C81.6657 95.2789 79.609 95.6056 77.5824 95.7923C74.3124 96.1023 71.6824 97.3223 68.4524 96.7323C68.3611 96.7163 68.2784 96.6684 68.2192 96.5971C68.1601 96.5257 68.1282 96.4357 68.1294 96.343C68.1306 96.2503 68.1648 96.1611 68.2258 96.0913C68.2868 96.0216 68.3707 95.9758 68.4624 95.9622L81.3524 93.9622C81.4488 93.9459 81.54 93.9066 81.618 93.8478C81.696 93.7889 81.7584 93.7122 81.7998 93.6245C81.8412 93.5367 81.8604 93.4405 81.8556 93.3442C81.8508 93.248 81.8222 93.1546 81.7724 93.0723C81.339 92.3456 81.1957 91.4556 81.3424 90.4023C84.3157 89.4289 87.339 88.5723 90.4124 87.8323C94.3924 86.8656 97.419 86.0356 99.4924 85.3423C107.506 82.6556 113.306 80.3389 116.892 78.3923C119.332 77.0656 121.182 76.2089 122.442 75.8223Z" fill="#C42E37"/>
<path d="M39.9124 81.2122C40.7324 85.7256 43.8424 88.1756 49.2424 88.5623C50.0157 88.6156 50.5724 88.8623 50.9124 89.3023C50.9519 89.3525 50.9773 89.4123 50.986 89.4756C50.9948 89.5389 50.9865 89.6034 50.9621 89.6625C50.9376 89.7215 50.8979 89.773 50.847 89.8116C50.7961 89.8503 50.7358 89.8746 50.6724 89.8823C50.3324 89.9223 49.9357 89.8723 49.4824 89.7323L41.4124 88.0623L38.5424 87.2323C38.2624 84.9056 38.719 82.8989 39.9124 81.2122Z" fill="#812940"/>
<path d="M109.752 91.3623C110.899 89.1623 110.929 86.9089 109.842 84.6023C109.949 84.7089 110.066 84.6923 110.192 84.5523L112.222 84.0723C113.642 84.2723 115.069 84.1856 116.502 83.8123C118.582 83.2623 119.952 83.6223 121.812 84.1423C121.885 84.1625 121.951 84.2041 122 84.2616C122.049 84.3192 122.08 84.3901 122.088 84.4653C122.097 84.5405 122.083 84.6166 122.048 84.6837C122.013 84.7509 121.959 84.8061 121.892 84.8423L109.752 91.3623Z" fill="#210F2D"/>
<path d="M0.742363 84.4823C0.897003 84.4823 1.02236 84.3569 1.02236 84.2023C1.02236 84.0476 0.897003 83.9223 0.742363 83.9223C0.587723 83.9223 0.462364 84.0476 0.462364 84.2023C0.462364 84.3569 0.587723 84.4823 0.742363 84.4823Z" fill="#3D1745"/>
<path d="M109.842 84.6022C110.929 86.9089 110.899 89.1623 109.752 91.3623L103.572 94.6223L93.9824 98.0623C93.9327 98.0774 93.8904 98.1105 93.8637 98.155C93.837 98.1995 93.8277 98.2523 93.8376 98.3033C93.8476 98.3543 93.8761 98.3997 93.9176 98.4309C93.9591 98.4621 94.0106 98.4769 94.0624 98.4723C96.349 98.3056 98.1424 98.7556 99.4424 99.8223C97.2024 100.869 95.399 101.299 94.0324 101.112C88.0657 101.606 82.3424 101.422 76.8624 100.562L83.1524 98.3423C83.1939 98.3262 83.2298 98.2984 83.2558 98.2622C83.2818 98.2261 83.2968 98.1832 83.2989 98.1388C83.3011 98.0943 83.2902 98.0502 83.2678 98.0117C83.2453 97.9733 83.2121 97.9422 83.1724 97.9223L81.9424 97.3023C82.8624 96.8289 83.4657 95.9989 83.7524 94.8123C90.4857 92.7856 95.049 91.2423 97.4424 90.1823C101.662 88.3156 105.796 86.4556 109.842 84.6022Z" fill="#3D1745"/>
<path d="M135.492 86.6723C135.89 86.6723 136.212 86.3499 136.212 85.9523C136.212 85.5546 135.89 85.2323 135.492 85.2323C135.095 85.2323 134.772 85.5546 134.772 85.9523C134.772 86.3499 135.095 86.6723 135.492 86.6723Z" fill="#7C8B9E"/>
<path d="M38.5424 87.2323L41.4124 88.0623C39.4324 90.1623 38.9657 91.7856 40.0124 92.9323L31.4724 91.0523C31.399 89.4056 32.1524 87.6356 33.7324 85.7423L38.5424 87.2323Z" fill="#AD6990"/>
<path d="M158.662 87.5022C158.612 87.4777 158.571 87.4381 158.546 87.3886C158.52 87.3391 158.512 87.2818 158.52 87.224C158.529 87.1661 158.554 87.1104 158.594 87.0638C158.633 87.0172 158.685 86.9819 158.742 86.9622C159.129 86.8289 159.436 86.8222 159.662 86.9422C159.723 86.9742 159.771 87.0246 159.798 87.0865C159.825 87.1485 159.831 87.219 159.815 87.2887C159.798 87.3584 159.761 87.4239 159.707 87.4764C159.652 87.5289 159.585 87.5658 159.512 87.5822C159.219 87.6556 158.936 87.6289 158.662 87.5022Z" fill="#7C8B9E"/>
<path d="M49.4824 89.7323L49.0824 93.4323L40.0124 92.9323C38.9657 91.7856 39.4324 90.1623 41.4124 88.0623L49.4824 89.7323Z" fill="#CE5A62"/>
<path d="M7.83236 90.9423C8.03236 90.7423 8.33236 90.6356 8.73236 90.6223C8.77812 90.6192 8.82384 90.6287 8.86453 90.6499C8.90521 90.6711 8.9393 90.703 8.96304 90.7422C8.98679 90.7815 8.99929 90.8265 8.99917 90.8723C8.99905 90.9182 8.98632 90.9631 8.96236 91.0023C8.7557 91.3423 8.44903 91.5023 8.04236 91.4823C7.97953 91.4827 7.91805 91.464 7.86607 91.4287C7.81408 91.3934 7.77405 91.3432 7.75128 91.2846C7.72851 91.2261 7.72407 91.162 7.73855 91.1008C7.75303 91.0397 7.78574 90.9844 7.83236 90.9423Z" fill="#3D1745"/>
<path d="M81.3424 90.4023C81.1957 91.4556 81.339 92.3456 81.7724 93.0723C81.8222 93.1546 81.8508 93.248 81.8556 93.3442C81.8604 93.4405 81.8412 93.5367 81.7998 93.6245C81.7584 93.7122 81.696 93.7889 81.618 93.8478C81.54 93.9066 81.4488 93.9459 81.3524 93.9622L68.4624 95.9622C68.3707 95.9758 68.2868 96.0216 68.2258 96.0913C68.1648 96.1611 68.1306 96.2503 68.1294 96.343C68.1282 96.4357 68.1601 96.5257 68.2193 96.5971C68.2784 96.6684 68.3611 96.7163 68.4524 96.7323C71.6824 97.3223 74.3124 96.1023 77.5824 95.7923C79.609 95.6056 81.6657 95.2789 83.7524 94.8123C83.4657 95.9989 82.8624 96.8289 81.9424 97.3023C80.0824 97.5623 78.6924 97.9523 76.6924 97.7723C75.1524 97.6323 73.2224 97.8022 70.9024 98.2822C69.1357 98.6489 64.609 98.8689 57.3224 98.9423C56.8624 98.9489 56.149 98.7989 55.1824 98.4923C54.9834 98.426 54.7779 98.3889 54.5724 98.3823L45.9224 98.1623C44.489 97.1823 43.779 96.2156 43.7924 95.2623L48.2524 95.2023C48.5944 95.1957 48.9331 95.2676 49.2424 95.4123C50.7757 96.1456 52.5457 96.5523 54.5524 96.6323C54.6111 96.6353 54.669 96.6167 54.7149 96.58C54.7608 96.5432 54.7916 96.4909 54.8015 96.4329C54.8114 96.3749 54.7996 96.3153 54.7684 96.2654C54.7372 96.2155 54.6888 96.1788 54.6324 96.1623C53.1124 95.7156 52.299 94.9822 52.1924 93.9622C62.079 94.2956 71.7957 93.1089 81.3424 90.4023Z" fill="#812940"/>
<path d="M102.762 98.7323L99.4424 99.8222C98.1424 98.7556 96.349 98.3056 94.0624 98.4722C94.0106 98.4768 93.9591 98.4621 93.9176 98.4309C93.8761 98.3997 93.8476 98.3543 93.8376 98.3033C93.8277 98.2523 93.837 98.1995 93.8637 98.155C93.8904 98.1105 93.9327 98.0774 93.9824 98.0623L103.572 94.6223C107.272 94.4556 110.796 93.4823 114.142 91.7023C114.216 91.6623 114.301 91.6525 114.382 91.6749C114.462 91.6973 114.53 91.7502 114.572 91.8222L114.692 92.0422C114.711 92.0778 114.718 92.1184 114.71 92.1569C114.703 92.1954 114.682 92.2292 114.652 92.2522C110.906 94.8656 106.942 97.0256 102.762 98.7323Z" fill="#210F2D"/>
<path d="M43.7924 95.2623C43.779 96.2156 44.489 97.1823 45.9224 98.1623C38.9157 97.6356 32.2124 95.9523 25.8124 93.1123C25.7845 93.1006 25.7593 93.0834 25.7381 93.0615C25.717 93.0397 25.7004 93.0136 25.6893 92.9848C25.6781 92.956 25.6727 92.9251 25.6732 92.8938C25.6737 92.8624 25.6802 92.8314 25.6924 92.8023V92.7923C25.7138 92.7356 25.7576 92.6897 25.8151 92.6638C25.8726 92.6378 25.9395 92.6337 26.0024 92.6523C30.129 93.8923 32.8457 94.5523 34.1524 94.6323C37.3857 94.8389 40.599 95.0489 43.7924 95.2623Z" fill="#3D1745"/>
<path d="M145.302 97.9023C145.236 97.9023 145.029 97.4423 144.682 96.5223C144.653 96.4325 144.601 96.3502 144.532 96.2823L143.972 95.7023C143.91 95.635 143.864 95.5541 143.838 95.466C143.813 95.3779 143.808 95.285 143.824 95.1947C143.841 95.1044 143.878 95.0192 143.933 94.9458C143.989 94.8725 144.06 94.8131 144.142 94.7723C144.729 94.4789 145.079 94.0189 145.192 93.3923C145.196 93.3772 145.21 93.3614 145.231 93.3471C145.253 93.3328 145.281 93.3206 145.312 93.3123C145.332 93.3056 145.349 93.3023 145.362 93.3023C145.382 93.3023 145.399 93.3056 145.412 93.3123C145.443 93.3209 145.471 93.3332 145.492 93.3474C145.513 93.3617 145.527 93.3773 145.532 93.3923C145.632 94.0256 145.972 94.4956 146.552 94.8023C146.632 94.8459 146.701 94.9074 146.753 94.982C146.806 95.0567 146.84 95.1424 146.853 95.2325C146.867 95.3226 146.859 95.4146 146.832 95.5013C146.804 95.588 146.756 95.667 146.692 95.7323L146.122 96.3023C146.05 96.3692 145.995 96.4515 145.962 96.5423C145.596 97.4489 145.376 97.9023 145.302 97.9023Z" fill="#FFFFFA"/>
<path d="M15.3724 97.4623C15.4318 97.3257 15.532 97.2099 15.6589 97.1308C15.7859 97.0517 15.9333 97.0133 16.0807 97.021C16.2281 97.0287 16.3682 97.0821 16.4814 97.1737C16.5946 97.2654 16.6753 97.3907 16.7124 97.5323C16.7657 97.7323 16.7224 97.9723 16.5824 98.2523C16.525 98.3715 16.4349 98.4727 16.3228 98.5437C16.2108 98.6147 16.0815 98.6525 15.9506 98.6525C15.8197 98.6525 15.6926 98.6147 15.5847 98.5437C15.4768 98.4727 15.3927 98.3715 15.3424 98.2523C15.2424 98.0189 15.2524 97.7556 15.3724 97.4623Z" fill="#7C8B9E"/>
<path d="M124.162 98.2923C124.14 98.3625 124.097 98.4264 124.039 98.4744C123.981 98.5224 123.912 98.552 123.841 98.5587C123.77 98.5655 123.702 98.549 123.646 98.5118C123.591 98.4746 123.551 98.4186 123.532 98.3523C123.506 98.2589 123.532 98.1489 123.612 98.0223C123.634 97.9848 123.669 97.9557 123.71 97.9394C123.752 97.9232 123.798 97.9207 123.842 97.9323C124.102 97.9989 124.209 98.1189 124.162 98.2923Z" fill="#7C8B9E"/>
<path d="M102.762 98.7323C104.329 99.7656 105.959 100.419 107.652 100.692C107.758 100.712 107.855 100.764 107.929 100.842C108.003 100.92 108.05 101.019 108.065 101.125C108.079 101.232 108.059 101.34 108.009 101.434C107.958 101.529 107.879 101.605 107.782 101.652C95.6924 107.202 83.2424 109.032 70.1324 105.352C70.0814 105.338 70.035 105.31 69.9977 105.272C69.9604 105.234 69.9335 105.188 69.9194 105.136C69.9054 105.085 69.9047 105.031 69.9175 104.98C69.9303 104.928 69.956 104.881 69.9924 104.842L72.0024 102.662C74.9557 102.929 77.9157 103.319 80.8824 103.832C84.749 104.492 89.1324 103.586 94.0324 101.112C95.399 101.299 97.2024 100.869 99.4424 99.8223L102.762 98.7323Z" fill="#050B29"/>
<path d="M76.8624 100.562C82.3424 101.422 88.0657 101.606 94.0324 101.112C89.1324 103.586 84.749 104.492 80.8824 103.832C77.9157 103.319 74.9557 102.929 72.0024 102.662L67.6224 101.952C67.5437 101.936 67.4732 101.893 67.4233 101.83C67.3734 101.768 67.3473 101.689 67.3497 101.609C67.3521 101.529 67.3828 101.452 67.4364 101.392C67.4899 101.332 67.5629 101.293 67.6424 101.282L76.8624 100.562Z" fill="#210F2D"/>
<path d="M39.9384 106.451C40.1341 106.272 40.1872 106.011 40.0568 105.869C39.9265 105.726 39.6621 105.755 39.4664 105.934C39.2706 106.113 39.2176 106.373 39.3479 106.516C39.4782 106.659 39.7426 106.629 39.9384 106.451Z" fill="#7C8B9E"/>
<path d="M4.44236 106.872C4.54741 106.848 4.65581 106.855 4.75673 106.893C4.85764 106.931 4.94753 106.998 5.01739 107.089C5.08726 107.179 5.13465 107.288 5.15483 107.407C5.175 107.525 5.16726 107.647 5.13236 107.762C5.01236 108.162 4.6957 108.256 4.18236 108.042C4.0994 108.008 4.02265 107.96 3.9571 107.902C3.89155 107.844 3.83866 107.777 3.80188 107.706C3.76509 107.634 3.74523 107.559 3.74359 107.486C3.74196 107.413 3.75857 107.344 3.79236 107.282C3.89903 107.089 4.1157 106.952 4.44236 106.872Z" fill="#7C8B9E"/>
<path d="M26.2624 108.202C26.3024 108.349 26.2224 108.442 26.0224 108.482C25.6557 108.556 25.4757 108.479 25.4824 108.252C25.4833 108.159 25.5184 108.071 25.5814 108.005C25.6443 107.939 25.7309 107.9 25.8254 107.894C25.9199 107.888 26.0159 107.915 26.0961 107.972C26.1763 108.029 26.2353 108.11 26.2624 108.202Z" fill="#7C8B9E"/>
<path d="M115.382 109.142C115.322 108.836 115.409 108.546 115.642 108.272C115.679 108.227 115.727 108.205 115.78 108.209C115.833 108.213 115.889 108.243 115.94 108.296C115.991 108.348 116.036 108.42 116.068 108.503C116.101 108.586 116.119 108.676 116.122 108.762C116.129 108.962 116.099 109.122 116.032 109.242C115.998 109.305 115.945 109.356 115.88 109.388C115.816 109.419 115.743 109.431 115.672 109.42C115.601 109.409 115.536 109.376 115.484 109.327C115.432 109.277 115.396 109.213 115.382 109.142Z" fill="#7C8B9E"/>
<path d="M134.972 109.582C135.315 109.582 135.592 109.305 135.592 108.962C135.592 108.62 135.315 108.342 134.972 108.342C134.63 108.342 134.352 108.62 134.352 108.962C134.352 109.305 134.63 109.582 134.972 109.582Z" fill="#7C8B9E"/>
<path d="M149.762 114.372C150.056 114.419 150.172 114.602 150.112 114.922C150.046 115.276 149.919 115.479 149.732 115.532C149.62 115.569 149.504 115.563 149.403 115.514C149.301 115.466 149.22 115.378 149.173 115.265C149.126 115.152 149.115 115.02 149.142 114.891C149.169 114.762 149.232 114.642 149.322 114.552C149.462 114.412 149.609 114.352 149.762 114.372Z" fill="#7C8B9E"/>
<path d="M96.1923 115.025C96.1863 114.715 96.0025 114.468 95.7816 114.472C95.5607 114.477 95.3865 114.731 95.3924 115.04C95.3984 115.349 95.5822 115.596 95.8031 115.592C96.024 115.588 96.1982 115.334 96.1923 115.025Z" fill="#7C8B9E"/>
<path d="M35.1624 115.272C35.1468 115.348 35.1066 115.418 35.0484 115.472C34.9902 115.526 34.9175 115.559 34.842 115.567C34.7665 115.576 34.6928 115.558 34.6329 115.517C34.5731 115.476 34.5306 115.414 34.5124 115.342C34.499 115.296 34.5324 115.189 34.6124 115.022C34.6225 115 34.6369 114.979 34.6547 114.962C34.6724 114.945 34.6932 114.932 34.7158 114.924C34.7383 114.915 34.762 114.912 34.7855 114.913C34.809 114.915 34.8318 114.921 34.8524 114.932C35.0724 115.052 35.1757 115.166 35.1624 115.272Z" fill="#3D1745"/>
<path d="M75.8724 115.922C75.9924 115.976 76.0757 116.066 76.1224 116.192C76.1408 116.244 76.144 116.299 76.1315 116.352C76.1191 116.405 76.0914 116.453 76.0518 116.492C76.0122 116.53 75.9622 116.558 75.9075 116.57C75.8528 116.582 75.7956 116.58 75.7424 116.562C75.609 116.516 75.519 116.432 75.4724 116.312C75.4516 116.254 75.4478 116.191 75.4614 116.13C75.475 116.069 75.5054 116.014 75.5486 115.972C75.5918 115.93 75.6458 115.903 75.7035 115.894C75.7613 115.885 75.8201 115.895 75.8724 115.922Z" fill="#7C8B9E"/>
<path d="M55.0224 116.112C55.1957 116.439 55.2124 116.712 55.0724 116.932C55.035 116.992 54.9806 117.039 54.9162 117.067C54.8519 117.095 54.7806 117.103 54.7115 117.09C54.6425 117.077 54.579 117.044 54.5292 116.994C54.4794 116.945 54.4457 116.881 54.4324 116.812C54.399 116.619 54.3957 116.469 54.4224 116.362C54.4443 116.288 54.4832 116.217 54.5344 116.157C54.5856 116.096 54.6468 116.05 54.7106 116.024C54.7743 115.997 54.8377 115.991 54.8931 116.007C54.9485 116.023 54.9934 116.059 55.0224 116.112Z" fill="#3D1745"/>
</svg>
